<svg width="108" height="29" viewBox="0 0 108 29" fill="none" xmlns="http://www.w3.org/2000/svg">
    <path d="M68.769 5.106v2.75h3.744v.7c0 2.835-1.13 4.338-4.166 5.312l1.147 2.63c2.091-.495 4.15-1.742 4.993-3.45.91 1.708 2.884 2.886 4.706 3.33l1.467-2.989c-2.648-.58-4.554-2.032-4.554-4.833v-.683h3.677v-2.75H68.785l-.016-.017zm17.035-.376h-3.44v3.963h-3.222v2.852h3.222v7.224h3.019c.253-.973.405-2.63.405-3.808V4.73h.017zm.355 16.601h-10.12c-.27 0-.355-.068-.355-.358v-4.065h-3.44v5.482c0 1.178.59 1.742 1.77 1.742h12.128v-2.818l.017.017zm1.956-16.259v2.733h3.914V9.12c0 3.484-.692 5.653-4.251 7.241l1.332 2.408c2.041-.768 3.948-2.22 4.825-4.081.877 1.742 2.732 3.193 4.52 3.893l1.602-2.835c-3.457-1.315-4.638-3.347-4.638-6.66V7.788h3.795V5.055H88.115v.017zm19.887 4.816h-3.407V4.73h-3.289v19.42h2.884c.27-1.145.405-3.11.405-4.646v-6.815h3.407V9.888zM40.31 23.86h7.86v-3.637h-8.855V5.125h-4.284v18.736h5.28zM57.574 16.721h3.475v3.28c-.641.256-1.89.495-3.087.495-3.846 0-5.128-1.981-5.128-5.995 0-4.013 1.215-6.097 5.077-6.097 2.142 0 3.357.683 4.369 1.981l2.665-2.476c-1.62-2.357-4.453-3.057-7.118-3.057-5.988 0-9.125 3.313-9.125 9.615s2.833 9.684 9.108 9.684c2.867 0 5.684-.752 7.202-1.828v-9.086h-7.421v3.501l-.017-.017z" fill="#6B6C6C"/>
    <path d="M14.32 29c7.911 0 14.32-6.49 14.32-14.5S22.232 0 14.32 0C6.41 0 0 6.49 0 14.5S6.41 29 14.32 29z" fill="#A50034"/>
    <path d="M13.74 8.129v12.707h3.998v-1.128h-2.85V8.128H13.74zM9.734 11.597c.945 0 1.72-.785 1.72-1.742 0-.956-.775-1.742-1.72-1.742-.944 0-1.72.786-1.72 1.742 0 .957.776 1.742 1.72 1.742z" fill="#fff"/>
    <path d="M14.883 2.375h-.573c-6.612 0-11.976 5.448-11.976 12.143 0 3.245 1.248 6.285 3.509 8.574 2.277 2.288 5.28 3.552 8.484 3.552 3.205 0 6.207-1.264 8.484-3.552a12.146 12.146 0 0 0 3.509-8.574v-.546h-8.553v1.127h7.422v.153c-.387 5.722-5.093 10.265-10.845 10.265-2.901 0-5.617-1.144-7.675-3.228a10.973 10.973 0 0 1-3.188-7.77c0-2.938 1.13-5.705 3.188-7.772 2.058-2.083 4.774-3.228 7.675-3.228h.573V2.392l-.034-.017z" fill="#fff"/>
</svg>
