<svg width="94" height="25" viewBox="0 0 94 25" xmlns="http://www.w3.org/2000/svg">
    <defs>
        <linearGradient x1="33.629%" y1="5.931%" x2="66.381%" y2="93.992%" id="qp61wghwvb">
            <stop stop-color="#F48996" offset="0%"/>
            <stop stop-color="#E97C88" offset="7.25%"/>
            <stop stop-color="#D65865" offset="30.46%"/>
            <stop stop-color="#C93C51" offset="51.18%"/>
            <stop stop-color="#C22746" offset="68.43%"/>
            <stop stop-color="#C01F42" offset="80.11%"/>
            <stop stop-color="#C01F42" offset="100%"/>
        </linearGradient>
        <linearGradient x1="9.81%" y1="19.793%" x2="80.845%" y2="89.758%" id="0hwv0n3stc">
            <stop stop-color="#CD435D" offset="0%"/>
            <stop stop-color="#BA3750" offset="10.69%"/>
            <stop stop-color="#A72944" offset="26.39%"/>
            <stop stop-color="#9A203B" offset="44.14%"/>
            <stop stop-color="#931A36" offset="65.48%"/>
            <stop stop-color="#911834" offset="100%"/>
        </linearGradient>
        <linearGradient x1="40.45%" y1="50.004%" x2="59.39%" y2="50.004%" id="tsgxqv069d">
            <stop stop-color="#B4BDC3" offset="0%"/>
            <stop stop-color="#686C72" offset="47.31%"/>
            <stop stop-color="#41464D" offset="82.19%"/>
            <stop stop-color="#343A41" offset="100%"/>
        </linearGradient>
        <linearGradient x1="41.59%" y1="49.75%" x2="58.29%" y2="49.75%" id="0i9j9hspke">
            <stop stop-color="#B3BBC1" offset="0%"/>
            <stop stop-color="#9BA2A7" offset="11.53%"/>
            <stop stop-color="#595E62" offset="53.77%"/>
            <stop stop-color="#373E42" offset="84.38%"/>
            <stop stop-color="#2B3337" offset="100%"/>
        </linearGradient>
        <linearGradient x1="14.523%" y1="15.222%" x2="85.184%" y2="84.388%" id="zeflwri2yf">
            <stop stop-color="#ACBBC3" offset="0%"/>
            <stop stop-color="#262B31" offset="100%"/>
        </linearGradient>
        <linearGradient x1="10.072%" y1="19.482%" x2="81.419%" y2="89.368%" id="bzwuvhgzvg">
            <stop stop-color="#B4BDC3" offset="0%"/>
            <stop stop-color="#3F464E" offset="100%"/>
        </linearGradient>
        <linearGradient x1="99.864%" y1="50.02%" x2="-.005%" y2="50.02%" id="8vscyfymfh">
            <stop stop-color="#B4BDC3" offset="0%"/>
            <stop stop-color="#49525A" offset="100%"/>
        </linearGradient>
        <radialGradient cx="48.153%" cy="48.439%" fx="48.153%" fy="48.439%" r="52.663%" gradientTransform="matrix(.98994 0 0 1 .005 0)" id="l2rbjgbxxa">
            <stop stop-color="#C01F42" offset="0%"/>
            <stop stop-color="#C01F42" offset="50%"/>
            <stop stop-color="#BE1F41" offset="74.48%"/>
            <stop stop-color="#B71E3E" offset="84.78%"/>
            <stop stop-color="#AC1D39" offset="92.39%"/>
            <stop stop-color="#9D1B32" offset="98.67%"/>
            <stop stop-color="#991A30" offset="100%"/>
        </radialGradient>
        <radialGradient cx="29.846%" cy="28.851%" fx="29.846%" fy="28.851%" r="77.263%" gradientTransform="matrix(.98936 0 0 1 .003 0)" id="oon7ifbayi">
            <stop stop-color="#FFF" offset="0%"/>
            <stop stop-color="#FFF" offset="35%"/>
            <stop stop-color="#F8F9FA" offset="51.27%"/>
            <stop stop-color="#EBEDEF" offset="68.06%"/>
            <stop stop-color="#D7DEE1" offset="85.03%"/>
            <stop stop-color="#C0CCD2" offset="100%"/>
        </radialGradient>
        <radialGradient cx="29.531%" cy="31.534%" fx="29.531%" fy="31.534%" r="78.742%" gradientTransform="matrix(.98936 0 0 1 .003 0)" id="7aol3jv9ij">
            <stop stop-color="#FFF" offset="0%"/>
            <stop stop-color="#FFF" offset="35%"/>
            <stop stop-color="#F8F9FA" offset="54.37%"/>
            <stop stop-color="#EBEEF0" offset="74.44%"/>
            <stop stop-color="#D7DFE3" offset="94.76%"/>
            <stop stop-color="#D0DBDF" offset="100%"/>
        </radialGradient>
    </defs>
    <g fill="none" fill-rule="evenodd">
        <path d="M12.32 0C5.521 0 0 5.463 0 12.203c0 6.739 5.522 12.202 12.32 12.202 6.782 0 12.29-5.406 12.333-12.102v-.2C24.61 5.405 19.103 0 12.32 0z" fill="url(#l2rbjgbxxa)" fill-rule="nonzero" transform="translate(.303 .3)"/>
        <path d="M3.986 3.943C-.13 8.016-.551 14.224 3.058 17.81c3.623 3.57 9.899 3.17 14.015-.903 4.13-4.087 4.537-10.296.928-13.866C16.348 1.405 14.145.602 11.84.602 9.101.588 6.218 1.721 3.986 3.943" fill="url(#qp61wghwvb)" fill-rule="nonzero" transform="translate(.303 .3)"/>
        <path d="m11.696 17.666.304-.172V7.184l-.086-.115.072-.014v-.029h.058l.928-.315.159.287s.029.028.029.086l-.015 9.377h2.247l.174.273c.014.014.029.043.029.115v.946c0 .057-.03.072-.073.086h-3.42a.294.294 0 0 1-.174-.057l-.232-.158zm11.117-6.037h-7.624v1.219l.188.258s.03.029.073.029H21.827c-.333 4.775-4.406 8.517-9.261 8.517-2.479 0-4.812-.946-6.566-2.681a8.973 8.973 0 0 1-2.71-6.453c0-2.438.913-4.775 2.667-6.496 1.753-1.72 3.97-2.624 6.623-2.681l.507-.014h.058c.03 0 .058 0 .058-.086v-.99c0-.071-.029-.1-.029-.1l-.231-.287-.508.072-.26.086c-5.798 0-10.131 4.79-10.131 10.496 0 2.753 1.101 5.363 3.072 7.313 1.986 1.95 4.609 2.94 7.406 2.94 2.812 0 5.464-1.047 7.45-2.997a10.17 10.17 0 0 0 3.072-7.313v-.617l-.231-.215zM8.55 6.854c-.913 0-1.652.731-1.652 1.635 0 .903.739 1.62 1.652 1.62.913 0 1.652-.731 1.652-1.62 0-.89-.739-1.635-1.652-1.635z" fill="url(#0hwv0n3stc)" fill-rule="nonzero" transform="translate(.303 .3)"/>
        <path fill="#636E78" fill-rule="nonzero" d="m12.246 17.722-.247.244h3.696l-.246-.244z"/>
        <path fill="#8699A3" fill-rule="nonzero" d="m15.449 16.99.246-.229h-2.42l-.29.23z"/>
        <path fill="#8E9AA2" fill-rule="nonzero" d="M13.275 7.01h-1.276l.232.23H13z"/>
        <path fill="url(#tsgxqv069d)" fill-rule="nonzero" d="m12.71 16.676.262-.215v-9.75l-.276.23z" transform="translate(.303 .3)"/>
        <path fill="url(#0i9j9hspke)" fill-rule="nonzero" d="M15.146 16.69v.732l.246.244V16.46z" transform="translate(.303 .3)"/>
        <path fill="#B4BDC3" fill-rule="nonzero" d="M12 7.01v10.956l.246-.244L12.23 7.24z"/>
        <path d="M7.318 8.602c0 .746.609 1.348 1.377 1.348.754 0 1.362-.602 1.362-1.348 0-.745-.608-1.348-1.362-1.348-.754 0-1.377.603-1.377 1.348z"/>
        <path d="M6.783 8.302c0 .875.725 1.592 1.609 1.592S10 9.177 10 8.302c0-.874-.724-1.591-1.608-1.591-.884 0-1.61.717-1.61 1.591zm2.986 0c0 .746-.61 1.348-1.363 1.348-.754 0-1.377-.602-1.377-1.348 0-.745.609-1.348 1.377-1.348.74 0 1.363.603 1.363 1.348z" fill="url(#zeflwri2yf)" fill-rule="nonzero" transform="translate(.303 .3)"/>
        <path fill="#515D62" fill-rule="nonzero" d="m22.072 12.875-6.391-.014-.232.244h6.377l.13-.13z"/>
        <path fill="#8F9CA4" fill-rule="nonzero" d="M15.68 12.144h7.146l.246-.244H15.45z"/>
        <path d="M22.769 12.188V11.6l-.246.244v.359a9.979 9.979 0 0 1-2.986 7.14c-1.928 1.908-4.493 2.954-7.232 2.954-2.725 0-5.29-1.046-7.203-2.953a9.979 9.979 0 0 1-2.986-7.141c0-5.564 4.58-10.095 10.203-10.095h.392l.232-.23h-.624c-5.754 0-10.435 4.632-10.435 10.339 0 2.753 1.087 5.348 3.058 7.313a10.429 10.429 0 0 0 7.377 3.025c2.798 0 5.42-1.075 7.392-3.025 1.971-1.979 3.058-4.574 3.058-7.342z" fill="url(#bzwuvhgzvg)" fill-rule="nonzero" transform="translate(.303 .3)"/>
        <path d="M12.71 2.84h-.521c-2.478.028-4.783 1.003-6.551 2.738a9.188 9.188 0 0 0-2.768 6.61c0 2.495.985 4.847 2.768 6.625a9.481 9.481 0 0 0 6.58 2.739h.246c4.914-.058 8.986-3.872 9.32-8.733l.014-.258-.116.115-.13.129c-.334 4.775-4.377 8.503-9.204 8.503a9.168 9.168 0 0 1-6.522-2.681 9.018 9.018 0 0 1-2.695-6.453c0-2.438.956-4.732 2.695-6.453a9.24 9.24 0 0 1 6.522-2.667h.624l-.261-.215z" fill="url(#8vscyfymfh)" fill-rule="nonzero" transform="translate(.303 .3)"/>
        <path fill="#B4BDC3" fill-rule="nonzero" d="m15.68 12.144-.231-.244v1.205l.232-.244z"/>
        <path d="M11.827 6.84v10.682h3.434v-.946h-2.449V6.84h-.985zm.362-4.861C6.565 2.05 2 6.596 2 12.189c0 2.724 1.073 5.29 3.03 7.212a10.26 10.26 0 0 0 7.29 2.997c2.768 0 5.362-1.061 7.304-2.997 1.942-1.936 3.015-4.488 3.015-7.213v-.459H15.276v.947h6.377v.143c-.333 4.804-4.391 8.632-9.334 8.632-2.493 0-4.84-.96-6.609-2.71-1.753-1.75-2.739-4.072-2.739-6.538a9.09 9.09 0 0 1 2.74-6.539 9.398 9.398 0 0 1 6.608-2.71h.493v-.96h-.623v-.015z" fill="url(#oon7ifbayi)" fill-rule="nonzero" transform="translate(.303 .3)"/>
        <path d="M6.899 8.302c0 .803.667 1.463 1.478 1.463.812 0 1.478-.645 1.478-1.463 0-.817-.666-1.462-1.478-1.462-.811 0-1.478.645-1.478 1.462" fill="url(#7aol3jv9ij)" fill-rule="nonzero" transform="translate(.303 .3)"/>
        <g fill="#FFF" fill-rule="nonzero">
            <path d="M8.956 7.398c.333 0 .652.115.898.315a1.496 1.496 0 0 0-1.16-.573c-.81 0-1.477.645-1.477 1.462 0 .474.231.875.58 1.148a1.364 1.364 0 0 1-.32-.89c0-.803.667-1.462 1.479-1.462"/>
            <path d="M13.115 2.293h-.492c-5.682 0-10.305 4.589-10.305 10.21 0 2.724 1.072 5.29 3.014 7.212.058.058.13.115.189.187a10.047 10.047 0 0 1-2.84-7.04C2.665 7.24 6.694 2.565 13.114 2.292M13.115 16.876s.71.2 2.45.2v-.2h-2.45zM13.115 7.44v-.3h-.985v10.697s.304-1.62.304-10.382h.681v-.014zM22.927 12.03h-7.362v.946h.26v-.688c6.436 0 7.102-.259 7.102-.259"/>
            <path d="M21.956 12.976v.143c-.333 4.804-4.391 8.632-9.333 8.632-2.493 0-4.841-.96-6.61-2.71a8.984 8.984 0 0 1-2.39-4.043c1.1 3.986 4.796 6.868 9.173 6.868 4.696 0 9.03-3.642 9.29-8.89h-.13z"/>
        </g>
        <path d="M59.523 4.587v2.309h3.218v.602c0 2.38-.972 3.642-3.595 4.46l.986 2.208c1.811-.416 3.565-1.463 4.304-2.91.783 1.433 2.479 2.437 4.058 2.795l1.247-2.51c-2.29-.487-3.928-1.72-3.928-4.057V6.91h3.174V4.587h-9.464zm14.667-.315h-2.956v3.327H68.45v2.394h2.783v6.08h2.594c.217-.817.348-2.208.348-3.198V4.272h.014zm.305 13.98h-8.71c-.233 0-.305-.057-.305-.3v-3.413h-2.957v4.603c0 1.003.507 1.477 1.522 1.477H74.48v-2.366h.015zm1.68-13.679v2.294h3.363v1.104c0 2.926-.608 4.761-3.667 6.095l1.16 2.036c1.754-.646 3.391-1.879 4.16-3.427.768 1.477 2.347 2.681 3.898 3.269l1.377-2.38c-2.971-1.104-4-2.825-4-5.607v-1.09h3.275V4.573h-9.565zm17.117 4.044H90.35V4.272h-2.826v16.332h2.478c.232-.96.348-2.624.348-3.914v-5.736h2.942V8.617zM35.03 20.375h6.753v-3.069h-7.638V4.616h-3.681v15.759zM49.885 14.367h3v2.753c-.55.215-1.623.416-2.652.416-3.32 0-4.42-1.664-4.42-5.048 0-3.226 1.043-5.119 4.362-5.119 1.84 0 2.898.574 3.768 1.664l2.29-2.08c-1.391-1.978-3.84-2.58-6.13-2.58-5.16 0-7.87 2.781-7.87 8.087 0 5.276 2.449 8.144 7.84 8.144 2.479 0 4.9-.63 6.203-1.534v-7.643h-6.391v2.94z" fill="#6E6F71" fill-rule="nonzero"/>
    </g>
</svg>
