<svg width="64" height="64" viewBox="0 0 64 64" fill="none" xmlns="http://www.w3.org/2000/svg">
    <g filter="url(#i47oe2b2za)">
        <path d="M30 12a16.002 16.002 0 0 1 12.366 5.848c.332.405.643.826.934 1.263a15.931 15.931 0 0 1 1.478 2.766c.2.484.376.977.529 1.478a15.733 15.733 0 0 1 .612 3.076A16.9 16.9 0 0 1 46 28a16.002 16.002 0 0 1-1.889 7.541c-.247.462-.518.911-.811 1.348a16.011 16.011 0 0 1-4.413 4.413 15.931 15.931 0 0 1-2.766 1.478c-.484.2-.977.376-1.478.529a15.733 15.733 0 0 1-3.076.612 16.002 16.002 0 0 1-9.108-1.81 15.735 15.735 0 0 1-1.348-.811 16.53 16.53 0 0 1-2.425-1.986c-.37-.37-.722-.758-1.054-1.163a15.386 15.386 0 0 1-.932-1.262 15.931 15.931 0 0 1-1.478-2.766 16.32 16.32 0 0 1-.915-3.002 16.049 16.049 0 0 1 0-6.242c.102-.514.23-1.022.382-1.523.153-.501.329-.994.529-1.478a15.753 15.753 0 0 1 1.482-2.767 16.53 16.53 0 0 1 1.986-2.425 15.843 15.843 0 0 1 2.425-1.986 15.931 15.931 0 0 1 2.766-1.478 16.32 16.32 0 0 1 3.002-.915A16.049 16.049 0 0 1 30 12z" fill="#fff" fill-opacity=".7"/>
    </g>
    <path d="m28 23 5 5-5 5" stroke="#000" stroke-width="1.5" stroke-miterlimit="10" stroke-linecap="square"/>
    <defs>
        <filter id="i47oe2b2za" x="0" y="0" width="64" height="64" filterUnits="userSpaceOnUse" color-interpolation-filters="sRGB">
            <feFlood flood-opacity="0" result="BackgroundImageFix"/>
            <feColorMatrix in="SourceAlpha" values="0 0 0 0 0 0 0 0 0 0 0 0 0 0 0 0 0 0 127 0" result="hardAlpha"/>
            <feOffset dx="2" dy="4"/>
            <feGaussianBlur stdDeviation="8"/>
            <feColorMatrix values="0 0 0 0 0 0 0 0 0 0 0 0 0 0 0 0 0 0 0.141 0"/>
            <feBlend in2="BackgroundImageFix" result="effect1_dropShadow_18_140973"/>
            <feBlend in="SourceGraphic" in2="effect1_dropShadow_18_140973" result="shape"/>
        </filter>
    </defs>
</svg>
