<svg width="32" height="33" viewBox="0 0 32 33" fill="none" xmlns="http://www.w3.org/2000/svg">
    <path fill-rule="evenodd" clip-rule="evenodd" d="M16 4.998a12 12 0 1 1 0 24 12 12 0 0 1 0-24zm6.48 15.21v-6.42a3.274 3.274 0 0 0-3.27-3.27h-6.42a3.274 3.274 0 0 0-3.27 3.27v6.42a3.274 3.274 0 0 0 3.27 3.27h6.42a3.274 3.274 0 0 0 3.27-3.27zm-3.27-8.28a1.858 1.858 0 0 1 1.857 1.859v6.421a1.858 1.858 0 0 1-1.858 1.86h-6.418a1.858 1.858 0 0 1-1.858-1.859v-6.422a1.858 1.858 0 0 1 1.858-1.859h6.418zM16 20.335a3.337 3.337 0 1 0-3.34-3.337A3.345 3.345 0 0 0 16 20.335zm3.36-5.985a.784.784 0 1 0-.87-.779.837.837 0 0 0 .87.78zm-3.36.72a1.928 1.928 0 1 1 0 3.858 1.928 1.928 0 0 1 0-3.857z" fill="#333"/>
</svg>
