<svg width="32" height="33" viewBox="0 0 32 33" fill="none" xmlns="http://www.w3.org/2000/svg">
    <path fill-rule="evenodd" clip-rule="evenodd" d="M16 28.438c6.627 0 12-5.373 12-12 0-6.628-5.373-12-12-12s-12 5.372-12 12c0 6.627 5.373 12 12 12zm-4.5-6h5.784c.53 0 1.056-.068 1.568-.203a4.2 4.2 0 0 0 1.355-.622c.396-.281.72-.653.945-1.084a3.332 3.332 0 0 0 .347-1.57 3.35 3.35 0 0 0-.543-1.924 2.88 2.88 0 0 0-1.648-1.118 2.999 2.999 0 0 0 1.214-.992c.286-.45.43-.978.41-1.513a3.248 3.248 0 0 0-.275-1.41 2.316 2.316 0 0 0-.78-.917 3.365 3.365 0 0 0-1.204-.496 7.417 7.417 0 0 0-1.556-.151H11.5v12zm2.625-2.051v-3.295h-.005 2.862c.488-.024.97.115 1.372.395a1.561 1.561 0 0 1 .52 1.32c.01.266-.045.532-.16.773a1.266 1.266 0 0 1-.425.479 1.798 1.798 0 0 1-.62.252 3.47 3.47 0 0 1-.735.076h-2.81zm0-7.898v2.805h2.658c.41.017.815-.101 1.153-.335a1.275 1.275 0 0 0 .452-1.093 1.414 1.414 0 0 0-.15-.69 1.122 1.122 0 0 0-.402-.419 1.692 1.692 0 0 0-.578-.21c-.223-.04-.45-.06-.676-.058h-2.457z" fill="#333"/>
</svg>
