<svg width="32" height="32" viewBox="0 0 32 32" fill="none" xmlns="http://www.w3.org/2000/svg">
<path fill-rule="evenodd" clip-rule="evenodd" d="M16 28C13.6266 28 11.3065 27.2962 9.33309 25.9776C7.3597 24.6591 5.8217 22.7849 4.91345 20.5922C4.0052 18.3995 3.76756 15.9867 4.23058 13.6589C4.6936 11.3312 5.83645 9.19295 7.51468 7.51472C9.19291 5.83649 11.3311 4.6936 13.6589 4.23058C15.9867 3.76756 18.3994 4.0052 20.5921 4.91345C22.7848 5.8217 24.659 7.35978 25.9776 9.33317C27.2961 11.3066 28 13.6266 28 16C28 19.1826 26.7357 22.2349 24.4853 24.4853C22.2348 26.7357 19.1826 28 16 28V28ZM18.5508 15.6153L18.7634 13.5513H16.9463V12.3356C16.936 12.2634 16.9419 12.19 16.9634 12.1204C16.985 12.0508 17.0217 11.9869 17.0708 11.9331C17.12 11.8794 17.1804 11.8372 17.2478 11.8095C17.3152 11.7819 17.3878 11.7695 17.4605 11.7733H18.7703V9.76687L16.9669 9.76C16.6384 9.73424 16.3082 9.78005 15.9992 9.89428C15.6902 10.0085 15.4096 10.1884 15.1769 10.4216C14.9442 10.6548 14.7648 10.9357 14.6512 11.2449C14.5376 11.5542 14.4924 11.8844 14.5188 12.2128V13.5499H13.36V15.6153H14.5188V21.4933H16.9463V15.6153H18.5508V15.6153Z" fill="#333333"/>
</svg>
