<svg xmlns="http://www.w3.org/2000/svg" width="24" height="24" viewBox="0 0 24 24">
    <path data-name="Stroke 3800" d="M2 0a2 2 0 0 1 2 2 2 2 0 0 1-2 2 2 2 0 0 1-2-2 2 2 0 0 1 2-2z" transform="translate(5 11)" style="fill:none;stroke:#000;stroke-miterlimit:10;stroke-width:1.2px"/>
    <path data-name="Stroke 3802" d="M2 0a2 2 0 0 1 2 2 2 2 0 0 1-2 2 2 2 0 0 1-2-2 2 2 0 0 1 2-2z" transform="translate(15 4)" style="fill:none;stroke:#000;stroke-miterlimit:10;stroke-width:1.2px"/>
    <path data-name="Stroke 3804" d="M2 0a2 2 0 0 1 2 2 2 2 0 0 1-2 2 2 2 0 0 1-2-2 2 2 0 0 1 2-2z" transform="translate(15 16.5)" style="fill:none;stroke:#000;stroke-miterlimit:10;stroke-width:1.2px"/>
    <path data-name="Stroke 3806" d="m0 0 6.387 3.724" transform="translate(8.639 14.163)" style="stroke-linecap:round;stroke-linejoin:round;fill:none;stroke:#000;stroke-miterlimit:10;stroke-width:1.2px"/>
    <path data-name="Stroke 3808" d="M0 4.571 6.715 0" transform="translate(8.639 7.233)" style="stroke-linecap:round;stroke-linejoin:round;fill:none;stroke:#000;stroke-miterlimit:10;stroke-width:1.2px"/>
</svg>
