<svg xmlns="http://www.w3.org/2000/svg" width="64" height="64" viewBox="0 0 64 64">
    <g fill="none" fill-rule="evenodd">
        <g>
            <g>
                <path d="M0 0H64V64H0z" transform="translate(-2621 -937) translate(2621 937)"/>
                <g fill="#222" fill-rule="nonzero">
                    <g>
                        <path d="M11.295 30c13.594 0 21.027-11.545 21.027-21.55 0-.33 0-.66-.015-.974C33.747 6.408 35.004 5.073 36 3.55c-1.318.597-2.743 1.005-4.245 1.193 1.532-.942 2.697-2.418 3.249-4.193-1.425.864-3.004 1.492-4.69 1.837C28.966.911 27.05 0 24.92 0c-4.077 0-7.387 3.393-7.387 7.57 0 .598.06 1.179.199 1.728-6.146-.314-11.586-3.33-15.234-7.916-.628 1.115-.996 2.419-.996 3.801 0 2.623 1.303 4.948 3.295 6.299-1.21-.032-2.345-.377-3.341-.943v.095c0 3.675 2.544 6.722 5.931 7.429-.613.173-1.272.267-1.946.267-.475 0-.935-.047-1.395-.142.935 3.016 3.663 5.2 6.897 5.262-2.53 2.026-5.717 3.236-9.18 3.236-.598 0-1.18-.032-1.763-.11C3.234 28.743 7.126 30 11.295 30" transform="translate(-2621 -937) translate(2621 937) translate(14 16)"/>
                    </g>
                </g>
            </g>
        </g>
    </g>
</svg>
