<?xml version="1.0" encoding="UTF-8"?>
<svg width="34px" height="34px" viewBox="0 0 34 34" version="1.1" xmlns="http://www.w3.org/2000/svg" xmlns:xlink="http://www.w3.org/1999/xlink">
    <!-- Generator: Sketch 61.2 (89653) - https://sketch.com -->
    <title>ic_Consulting_24@1x</title>
    <desc>Created with Sketch.</desc>
    <g id="Page-1" stroke="none" stroke-width="1" fill="none" fill-rule="evenodd">
        <g id="btn_top_bottom_64" transform="translate(-11.000000, -11.000000)">
            <g id="ic">
                <g id="ic_Consulting_24" transform="translate(8.000000, 8.000000)">
                    <rect id="Area" x="0" y="0" width="40" height="40"></rect>
                    <g id="Group-30" transform="translate(4.000000, 4.000000)" stroke-width="1.5">
                        <path d="M21.048774,23.1960969 C21.3663157,23.1960969 23.6989368,22.3066518 26.1664544,23.8071723 C27.8114662,24.8075193 28.4759431,26.7108198 28.1598851,29.5170739" id="Rectangle-13" stroke="#000000" transform="translate(24.642533, 26.225729) scale(1, -1) translate(-24.642533, -26.225729) "></path>
                        <path d="M16.5717999,26.7602339 L21.3125406,26.7602339 C22.62166,26.7602339 23.682911,27.8214849 23.682911,29.1306043 C23.682911,30.4397237 22.62166,31.5009747 21.3125406,31.5009747 L16.5717999,31.5009747 C15.2626805,31.5009747 14.2014295,30.4397237 14.2014295,29.1306043 C14.2014295,27.8214849 15.2626805,26.7602339 16.5717999,26.7602339 Z" id="Rectangle-6-Copy" stroke="#DA0F47" fill="#FFFFFF"></path>
                        <path d="M28.4737616,11.8518519 C28.4737616,4.13493745 20.5142683,0 15.3866147,0 C10.2589611,0 2.27493121,4.13493745 2.27493121,11.8518519" id="Oval-12" stroke="#000000" stroke-linecap="round" stroke-linejoin="round"></path>
                        <path d="M3.16049383,11.7769981 C4.90598637,11.7769981 6.32098765,13.1919993 6.32098765,14.9374919 L6.32098765,19.994282 C6.32098765,21.7397745 4.90598637,23.1547758 3.16049383,23.1547758 C1.41500128,23.1547758 8.87190959e-14,21.7397745 8.8949424e-14,19.994282 L8.8949424e-14,14.9374919 C8.87356628e-14,13.1919993 1.41500128,11.7769981 3.16049383,11.7769981 Z" id="Rectangle-6" stroke="#000000" stroke-linecap="round" stroke-linejoin="round"></path>
                        <path d="M28.4236517,11.8518519 C30.1691443,11.8518519 31.5841455,13.2668531 31.5841455,15.0123457 L31.5841455,20.0691358 C31.5841455,21.8146283 30.1691443,23.2296296 28.4236517,23.2296296 C26.6781592,23.2296296 25.2631579,21.8146283 25.2631579,20.0691358 L25.2631579,15.0123457 C25.2631579,13.2668531 26.6781592,11.8518519 28.4236517,11.8518519 Z" id="Rectangle-6" stroke="#000000" stroke-linecap="round" stroke-linejoin="round"></path>
                    </g>
                </g>
            </g>
        </g>
    </g>
</svg>