<svg xmlns="http://www.w3.org/2000/svg" width="880" height="172" viewBox="0 0 880 172">
    <g transform="translate(-57 -1405)">
        <text data-name="300만원" transform="translate(190 1433)" style="font-size:24px;font-family:NotoSansKR-Regular,Noto Sans KR"><tspan x="0" y="0">300만원</tspan></text>
        <text data-name="600만원" transform="translate(364 1433)" style="font-size:24px;font-family:NotoSansKR-Regular,Noto Sans KR"><tspan x="0" y="0">600만원</tspan></text>
        <text data-name="1200만원" transform="translate(533 1433)" style="font-size:24px;font-family:NotoSansKR-Regular,Noto Sans KR"><tspan x="0" y="0">1200만원</tspan></text>
        <text data-name="1500만원" transform="translate(709 1433)" style="font-size:24px;font-family:NotoSansKR-Regular,Noto Sans KR"><tspan x="0" y="0">1500만원</tspan></text>
        <g data-name="그룹 766" transform="translate(10.5 71)">
            <circle data-name="타원 14" cx="28" cy="28" r="28" transform="translate(193.5 1450)" style="fill:#ff9f21"/>
            <g data-name="그룹 43">
                <path data-name="패스 9" d="M1123.551 590.512h8.7c5.871 0 10.381 2.041 10.381 8.3 0 6.049-4.547 8.769-10.238 8.769h-3.543V617h-5.3zm8.484 12.887c3.651 0 5.4-1.539 5.4-4.582 0-3.078-1.934-4.117-5.584-4.117h-3.005v8.7z" transform="translate(-910.565 875.56)" style="fill:#fff"/>
            </g>
        </g>
        <g data-name="그룹 767" transform="translate(123 71)">
            <circle data-name="타원 30" cx="28" cy="28" r="28" transform="translate(256 1450)" style="fill:#ff9f21"/>
            <path data-name="패스 341" d="M1123.551 590.512h8.7c5.871 0 10.381 2.041 10.381 8.3 0 6.049-4.547 8.769-10.238 8.769h-3.543V617h-5.3zm8.484 12.887c3.651 0 5.4-1.539 5.4-4.582 0-3.078-1.934-4.117-5.584-4.117h-3.005v8.7z" transform="translate(-847.064 875.561)" style="fill:#fff"/>
        </g>
        <g data-name="그룹 768">
            <g data-name="그룹 123">
                <path data-name="패스 340" d="M28 0A28 28 0 1 1 0 28 28 28 0 0 1 28 0z" style="fill:#ff9f21" transform="translate(555 1521)"/>
            </g>
            <path data-name="패스 342" d="M1123.551 590.512h8.7c5.871 0 10.381 2.041 10.381 8.3 0 6.049-4.547 8.769-10.238 8.769h-3.543V617h-5.3zm8.484 12.887c3.651 0 5.4-1.539 5.4-4.582 0-3.078-1.934-4.117-5.584-4.117h-3.005v8.7z" transform="translate(-549.091 946.922)" style="fill:#fff"/>
        </g>
        <g data-name="그룹 769">
            <g data-name="그룹 124" transform="translate(762 1609.639)">
                <circle data-name="타원 14" cx="28" cy="28" r="28" transform="translate(-30 -88.639)" style="fill:#ff9f21"/>
            </g>
            <path data-name="패스 343" d="M1123.551 590.512h8.7c5.871 0 10.381 2.041 10.381 8.3 0 6.049-4.547 8.769-10.238 8.769h-3.543V617h-5.3zm8.484 12.887c3.651 0 5.4-1.539 5.4-4.582 0-3.078-1.934-4.117-5.584-4.117h-3.005v8.7z" transform="translate(-372.091 946.922)" style="fill:#fff"/>
        </g>
        <rect data-name="사각형 1051" width="880" height="20" rx="10" transform="translate(57 1470)" style="fill:#ddd"/>
        <path data-name="패스 401" d="M11441.986 13494v41" transform="translate(-11209.486 -12044)" style="fill:none;stroke:#fff;stroke-width:2px"/>
        <path data-name="패스 402" d="M11441.986 13494v41" transform="translate(-11035.486 -12044)" style="fill:none;stroke:#fff;stroke-width:2px"/>
        <path data-name="패스 403" d="M11441.986 13494v41" transform="translate(-10859.486 -12044)" style="fill:none;stroke:#fff;stroke-width:2px"/>
        <path data-name="패스 404" d="M11441.986 13494v41" transform="translate(-10683.486 -12044)" style="fill:none;stroke:#fff;stroke-width:2px"/>
        <path data-name="다각형 17" d="M4.624 1.593a1 1 0 0 1 1.752 0l3.809 6.925A1 1 0 0 1 9.309 10H1.691a1 1 0 0 1-.876-1.482z" transform="translate(227 1501)" style="fill:#ff9f21"/>
        <path data-name="다각형 18" d="M4.624 1.593a1 1 0 0 1 1.752 0l3.809 6.925A1 1 0 0 1 9.309 10H1.691a1 1 0 0 1-.876-1.482z" transform="translate(400 1501)" style="fill:#ff9f21"/>
        <path data-name="다각형 19" d="M4.624 1.593a1 1 0 0 1 1.752 0l3.809 6.925A1 1 0 0 1 9.309 10H1.691a1 1 0 0 1-.876-1.482z" transform="translate(577 1501)" style="fill:#ff9f21"/>
        <path data-name="다각형 20" d="M4.624 1.593a1 1 0 0 1 1.752 0l3.809 6.925A1 1 0 0 1 9.309 10H1.691a1 1 0 0 1-.876-1.482z" transform="translate(753 1501)" style="fill:#ff9f21"/>
        <path data-name="다각형 21" d="M233.376 1458.407a1 1 0 0 1-1.752 0l-3.809-6.925a1 1 0 0 1 .876-1.482h7.618a1 1 0 0 1 .876 1.482z"/>
        <path data-name="다각형 22" d="M406.376 1458.407a1 1 0 0 1-1.752 0l-3.809-6.925a1 1 0 0 1 .876-1.482h7.618a1 1 0 0 1 .876 1.482z"/>
        <path data-name="다각형 23" d="M583.376 1458.407a1 1 0 0 1-1.752 0l-3.809-6.925a1 1 0 0 1 .876-1.482h7.618a1 1 0 0 1 .876 1.482z"/>
        <path data-name="다각형 24" d="M759.376 1458.407a1 1 0 0 1-1.752 0l-3.809-6.925a1 1 0 0 1 .876-1.482h7.618a1 1 0 0 1 .876 1.482z"/>
    </g>
</svg>
