<svg xmlns="http://www.w3.org/2000/svg" width="48" height="48" viewBox="0 0 48 48">
    <path data-name="패스 387" d="M9.889 21.143q-.042-.579-.043-1.17a15.991 15.991 0 0 1 31.981 0q0 .607-.045 1.2" transform="translate(-1.632 -.111)" style="stroke-miterlimit:10;fill:none;stroke:#000;stroke-width:1.5px"/>
    <path data-name="패스 392" d="M48.01 46.58s.319 7.29-7.975 9.266a9.48 9.48 0 0 1-2.188.23h-5.3" transform="translate(-7.814 -12.077)" style="stroke-linecap:square;stroke-miterlimit:10;fill:none;stroke:#000;stroke-width:1.5px"/>
    <path data-name="사각형 8392" d="M5 0h3.516v12.3H5a5 5 0 0 1-5-5V5a5 5 0 0 1 5-5z" transform="translate(4 21.403)" style="fill:none;stroke:#000;stroke-width:1.5px"/>
    <path data-name="사각형 8393" d="M0 0h2.57a5 5 0 0 1 5 5v2.3a5 5 0 0 1-5 5H0V0z" transform="translate(36.43 21.403)" style="fill:none;stroke:#000;stroke-width:1.5px"/>
</svg>
