<svg xmlns="http://www.w3.org/2000/svg" width="48" height="48" viewBox="0 0 48 48">
    <path d="M2.5 10.375h44v11.569l-.807-.061q-.1-.007-.193-.007a2.5 2.5 0 0 0 0 5q.1 0 .193-.007l.807-.061v11.567h-44V26.806l.807.061q.1.007.193.007a2.5 2.5 0 1 0 0-5q-.1 0-.193.007l-.807.061V10.375zm1.5 1.5v8.531a4 4 0 0 1 0 7.938v8.531h31.5V34.4H37v2.475h8v-8.531a4 4 0 0 1 0-7.938v-8.531h-8v1.975h-1.5v-1.975zm14.1 8a1.1 1.1 0 1 0 1.1 1.1 1.1 1.1 0 0 0-1.1-1.1zm-2.6 1.1a2.6 2.6 0 1 1 2.6 2.6 2.6 2.6 0 0 1-2.6-2.6zm11.664-1.2-.53.53L17.44 29.5l-.53.53-1.061-1.061.53-.53 9.194-9.194.53-.53zm-3.363 8a1.1 1.1 0 1 1 1.1 1.1 1.1 1.1 0 0 1-1.101-1.101zm1.1-2.6a2.6 2.6 0 1 0 2.6 2.6 2.6 2.6 0 0 0-2.601-2.6zM37 15.55v-.75h-1.5v3.95H37v-3.2zm0 4.9v-.75h-1.5v3.95H37v-3.2zm0 4.9v-.75h-1.5v3.95H37v-3.2zm0 4.9v-.75h-1.5v3.95H37v-3.2z" transform="translate(-.5 -.375)" style="fill-rule:evenodd"/>
</svg>
