<svg xmlns="http://www.w3.org/2000/svg" width="64" height="64" viewBox="0 0 64 64">
    <g transform="translate(3 11.25)" data-name="img_Points earned_64">
        <path d="M10.135 19.5a20.182 20.182 0 0 1 .378 4.343 16.045 16.045 0 0 1-1.062 5.668h21.432V19.5z" transform="translate(25.117 .553)" style="fill-rule:evenodd;stroke:#000;fill:none;stroke-width:1.5px"/>
        <path data-name="Combined-Shape" d="M4.679 10.5a19.173 19.173 0 0 1 6.11 10.017h20.873V10.5z" transform="translate(24.338 -.463)" style="fill-rule:evenodd;stroke:#000;fill:none;stroke-width:1.5px"/>
        <path data-name="패스 48522" d="m30.822 27.75-21.4.019a19.413 19.413 0 0 1-7.265 9.05 4.256 4.256 0 0 0 2.682.946h25.98z" transform="translate(25.178 2.318)" style="stroke:#070203;fill:none;stroke-width:1.5px"/>
        <path data-name="패스 48523" d="M30.2.75H.75v8.2a12.738 12.738 0 0 1 2.76 1.814H30.2z" transform="translate(25.8 -.726)" style="stroke:#070203;fill:none;stroke-width:1.5px"/>
        <circle cx="17.805" cy="17.805" r="17.805" transform="translate(0 6.14)" style="stroke:#000;fill:none;stroke-width:1.5px"/>
        <path data-name="패스 48547" d="M18.881 15.363H18.2v16.221h1.36v-7.109h5.14a3.883 3.883 0 0 0 2.463-.941 4.553 4.553 0 0 0 1.447-3.616 4.553 4.553 0 0 0-1.45-3.618 3.884 3.884 0 0 0-2.463-.941zm5.819 7.755h-5.14v-6.4h5.14a2.53 2.53 0 0 1 1.576.61 3.214 3.214 0 0 1 .977 2.589 3.214 3.214 0 0 1-.977 2.589 2.53 2.53 0 0 1-1.576.612z" transform="translate(-4.202 1.387)" style="stroke-width:.1px;fill-rule:evenodd;stroke:#000"/>
    </g>
</svg>
