<svg xmlns="http://www.w3.org/2000/svg" width="64" height="64" viewBox="0 0 64 64">
    <g transform="translate(-702.285 -703.283)">
        <path data-name="합치기 13" d="M0 43.721A10.294 10.294 0 0 1 12.53 33.68l17.645-17.654A12.232 12.232 0 0 1 41.793 0a12.079 12.079 0 0 1 4.731.957l-9.484 9.492 6.366 6.357 9.541-9.543A12.064 12.064 0 0 1 54 12.222a12.211 12.211 0 0 1-16.789 11.316L20.1 40.643A10.287 10.287 0 1 1 0 43.721z" transform="translate(707.285 708.283)" style="fill:none;stroke:#000;stroke-width:1.5px"/>
        <circle data-name="타원 173" cx="4.5" cy="4.5" r="4.5" transform="translate(713.285 747.283)" style="fill:none;stroke:#000;stroke-width:1.5px"/>
        <path d="M0 12a12 12 0 1 1 12 12A12 12 0 0 1 0 12z" transform="translate(737.285 738.283)" style="stroke-miterlimit:10;fill:none;stroke:#000;stroke-width:1.5px"/>
        <path data-name="3년" d="M750.235 754.984v-2.88h1.32v1.83h4.96v1.05zm-7.69-1.59.69-.93a2.353 2.353 0 0 0 1.65.76c.75 0 1.26-.37 1.26-1.03 0-.731-.43-1.181-2.04-1.181v-1.059c1.36 0 1.8-.471 1.8-1.13a.884.884 0 0 0-.99-.93 2.111 2.111 0 0 0-1.4.66l-.75-.9a3.286 3.286 0 0 1 2.22-.91c1.43 0 2.4.7 2.4 1.97a1.754 1.754 0 0 1-1.24 1.69v.05a1.85 1.85 0 0 1 1.48 1.82c0 1.361-1.19 2.15-2.6 2.15a3.148 3.148 0 0 1-2.48-1.03zm12.44-.69v-2.99h-2.23v-1.04h2.23v-.68h-2.23v-1.04h2.23v-1.02h1.32v6.77zm-5.88-1.18v-5.01h1.31v3.93a20.152 20.152 0 0 0 3.261-.29l.13 1.07a20.993 20.993 0 0 1-3.96.3z"/>
    </g>
</svg>
