<svg width="160" height="132" viewBox="0 0 160 132" xmlns="http://www.w3.org/2000/svg" xmlns:xlink="http://www.w3.org/1999/xlink">
    <defs>
        <path id="9k3g7aldma" d="M0 0h112.764v123.343H0z"/>
        <path id="huz4mpnxic" d="M0 0h102.356v116.345H0z"/>
        <path id="bvk7i1zoqe" d="M0 132h160V0H0z"/>
    </defs>
    <g fill="none" fill-rule="evenodd">
        <g transform="translate(40.97 8.657)">
            <mask id="vxk27ulngb" fill="#fff">
                <use xlink:href="#9k3g7aldma"/>
            </mask>
            <path d="m95.612 232.306-78.519-.047C7.65 232.254-.002 224.556 0 215.063L.038 17.19C.04 7.692 7.703-.005 17.151 0l78.52.047c9.443.005 17.095 7.703 17.093 17.196l-.04 197.874c0 9.497-7.664 17.195-17.112 17.19" fill="#000" mask="url(#vxk27ulngb)"/>
        </g>
        <g transform="translate(46.174 15.655)">
            <mask id="plxu23uusd" fill="#fff">
                <use xlink:href="#huz4mpnxic"/>
            </mask>
            <path d="M90.384.047 75.161.038c-2.041 0-3.697 1.737-3.697 3.882l-.001.738c0 2.146-1.656 3.885-3.697 3.884l-29.674-.019c-2.042 0-3.696-1.74-3.696-3.886v-.739c0-2.145-1.654-3.885-3.696-3.886L25.347.009 12.022 0C5.405-.003.038 5.388.037 12.04L0 205.177c-.002 6.649 5.358 12.04 11.97 12.044l78.362.045c6.618.005 11.985-5.385 11.986-12.038l.038-193.139C102.357 5.442 96.998.051 90.384.047" fill="#FFF" mask="url(#plxu23uusd)"/>
        </g>
        <path fill="#000" d="M73.891 79.79v2.547h2.533v-5.092h-2.533z"/>
        <mask id="j7mmuuljff" fill="#fff">
            <use xlink:href="#bvk7i1zoqe"/>
        </mask>
        <path fill="#000" mask="url(#j7mmuuljff)" d="M73.89 67.061h2.533v-2.546h-2.532zM89.541 95.092h2.533v-2.546H89.54zM76.424 69.607v2.546H73.89V74.7h2.533v2.546H81.489v2.546h2.533v-2.546h2.533v-5.092h-2.533V74.7H78.957v-7.638h-2.533zM81.49 64.516h-2.533v2.545H84.022v-2.545zM92.886 84.982h1.361v-2.546H91.525v2.546z"/>
        <path fill="#000" mask="url(#j7mmuuljff)" d="M84.021 69.607h2.533V67.06h-2.533zM101.75 79.79h2.533v-2.546h-2.533zM104.284 51.786h2.532V49.24h-2.532zM91.62 69.607v-2.546h2.533v-2.545H91.62V61.97h-2.533v2.546h-2.532v2.545h2.532v10.184h2.533v-5.092h2.533v-2.546zM104.283 95.066h2.533V92.52H101.75v2.546zM99.218 51.786h2.533V49.24h-2.533z"/>
        <path fill="#000" mask="url(#j7mmuuljff)" d="M101.117 69.607v-2.546h-2.532v-2.545h-2.533V69.607H93.52v2.546h5.066v-2.546zM112.88 67.061h2.532v-2.546h-2.533zM86.627 79.79h2.533v-2.546h-2.533zM99.218 61.97v-2.546h2.533v-2.546H106.816v-2.546h-2.533v-2.546h-2.532v2.546h-2.533v2.546h-2.533v2.546h-2.532v2.546h2.532zM99.218 79.79v-2.545h2.533v-2.546h-5.066v2.546h-2.532v2.546h2.532zM106.816 89.973v-2.546H101.751v-2.546h-2.533v2.546h-2.533v2.546H91.62v2.546H99.218v-2.546h2.533v2.546h2.532v-2.546zM96.685 51.786V49.24H91.62v2.546h-2.533v2.546h5.066v-2.546z"/>
        <path fill="#000" mask="url(#j7mmuuljff)" d="M94.153 56.878h2.533v-2.546h-2.533zM103.017 64.516h-2.533V72.153h5.066v-2.546h-2.533v-2.546h2.533v-2.545h2.532V61.97h-2.532v-2.546h-2.533v2.546zM91.62 59.423h2.533v-2.545H91.62zM101.75 82.337v2.546h5.066v-2.546H111.88V79.79H104.283v2.546zM112.88 74.699h2.532v-2.546h-2.533zM104.284 77.244h2.532V74.7h-2.532z"/>
        <path fill="#000" mask="url(#j7mmuuljff)" d="M113.148 67.061h-5.066v2.546h2.533v2.546h2.533v-2.546zM109.349 77.244h2.533V74.7h-2.533zM83.341 88.113h6.331v-6.366h-6.33v6.366zm.681 1.909h7.6V79.788h-10.18v2.548h-2.485v2.546h2.485v2.546h-2.485v2.546h2.485v.048h.048v2.499h-2.533v5.091h2.533v-2.547h2.532V90.021zM116.947 79.79h2.532v-2.545H111.881v2.546h2.533zM116.947 69.607h2.532V64.516h-2.532v2.545zM96.78 82.436h-2.533v5.092h2.533v-2.546zM119.48 82.336h2.532V79.79h-2.532zM122.012 74.699v-2.546h-2.533v5.092h2.533zM76.424 92.52h-2.533v5.092h2.533v-2.546zM111.248 60.061h8.864v-8.91h-8.864v8.91zm-1.899 1.908h12.663V49.24H109.35v12.73z"/>
        <path fill="#000" mask="url(#j7mmuuljff)" d="M113.147 58.151h5.066V53.06h-5.066zM111.248 95.703h8.864v-8.91h-8.864v8.91zm-1.899 1.908h12.663V84.882H109.35v12.73z"/>
        <path fill="#000" mask="url(#j7mmuuljff)" d="M113.147 93.793h5.066v-5.092h-5.066zM75.758 60.06h8.865v-8.91h-8.865v8.91zm-1.898 1.91h12.663V49.24H73.86v12.73z"/>
        <path fill="#000" mask="url(#j7mmuuljff)" d="M77.659 58.151h5.065V53.06h-5.065z"/>
        <path stroke="#8E2770" stroke-width="3.178" stroke-linejoin="round" mask="url(#j7mmuuljff)" d="M69.063 51.15v-6.173h6.142M119.526 44.977h6.141v6.172M125.667 95.702v6.174h-6.142M75.204 101.875h-6.141v-6.173"/>
        <path d="M29.99 97.74H8.613a2.63 2.63 0 0 1-2.618-2.774l1.687-28.004a2.627 2.627 0 0 1 2.617-2.495h18.006a2.627 2.627 0 0 1 2.618 2.495l1.685 28.004a2.628 2.628 0 0 1-2.616 2.775" fill="#D2D2D2" mask="url(#j7mmuuljff)"/>
        <path fill="#464646" mask="url(#j7mmuuljff)" d="M7.491 99.904h23.621V97.74H7.491z"/>
        <path d="M32.144 132H6.458a2.628 2.628 0 0 1-2.617-2.776l1.76-26.826a2.626 2.626 0 0 1 2.617-2.494h22.167A2.626 2.626 0 0 1 33 102.398l1.76 26.826A2.628 2.628 0 0 1 32.144 132" fill="#D2D2D2" mask="url(#j7mmuuljff)"/>
        <path d="M32.658 55.97c0 7.414-5.98 13.426-13.357 13.426-7.377 0-13.358-6.012-13.358-13.427s5.98-13.427 13.358-13.427c7.377 0 13.357 6.012 13.357 13.427" fill="#DCDCDC" mask="url(#j7mmuuljff)"/>
        <path d="M31.323 55.97c0 6.673-5.382 12.083-12.022 12.083-6.639 0-12.022-5.41-12.022-12.084 0-6.674 5.383-12.084 12.022-12.084 6.64 0 12.022 5.41 12.022 12.084" fill="#464646" mask="url(#j7mmuuljff)"/>
        <path d="M29.016 55.97c0 5.392-4.35 9.764-9.715 9.764s-9.714-4.372-9.714-9.765c0-5.393 4.35-9.765 9.714-9.765 5.365 0 9.715 4.372 9.715 9.765" fill="#FFF" mask="url(#j7mmuuljff)"/>
        <path d="M22.633 55.97c0 1.849-1.491 3.349-3.332 3.349a3.34 3.34 0 0 1-3.332-3.35 3.34 3.34 0 0 1 3.332-3.35c1.84 0 3.332 1.5 3.332 3.35" fill="#282828" mask="url(#j7mmuuljff)"/>
    </g>
</svg>
