<svg width="154" height="115" viewBox="0 0 154 115" xmlns="http://www.w3.org/2000/svg" xmlns:xlink="http://www.w3.org/1999/xlink">
    <defs>
        <path id="i6bwuqsm7a" d="M0 0h59.12v59.336H0z"/>
    </defs>
    <g fill="none" fill-rule="evenodd">
        <path d="M147.383 101.978H39.604c-3.654 0-6.618-2.973-6.618-6.641V25.384H154v69.953c0 3.668-2.963 6.64-6.617 6.64" fill="#E6E6E6"/>
        <path d="M154 25.385H32.987V11.874c0-3.668 2.962-6.641 6.616-6.641h107.78c3.655 0 6.617 2.973 6.617 6.64v13.512z" fill="#8E2770"/>
        <path d="M57.378 16.848h-1.549a2.322 2.322 0 0 1-2.318-2.326V2.326A2.322 2.322 0 0 1 55.83 0h1.549a2.322 2.322 0 0 1 2.318 2.326v12.196a2.322 2.322 0 0 1-2.318 2.326M75.824 16.848h-1.549a2.322 2.322 0 0 1-2.318-2.326V2.326A2.322 2.322 0 0 1 74.275 0h1.55a2.322 2.322 0 0 1 2.317 2.326v12.196a2.322 2.322 0 0 1-2.318 2.326M94.27 16.848h-1.549a2.322 2.322 0 0 1-2.318-2.326V2.326A2.322 2.322 0 0 1 92.721 0h1.55a2.322 2.322 0 0 1 2.317 2.326v12.196a2.322 2.322 0 0 1-2.318 2.326M112.716 16.848h-1.548a2.322 2.322 0 0 1-2.318-2.326V2.326A2.322 2.322 0 0 1 111.168 0h1.548a2.322 2.322 0 0 1 2.318 2.326v12.196a2.322 2.322 0 0 1-2.318 2.326M131.163 16.848h-1.55a2.322 2.322 0 0 1-2.317-2.326V2.326A2.322 2.322 0 0 1 129.614 0h1.549a2.322 2.322 0 0 1 2.317 2.326v12.196a2.322 2.322 0 0 1-2.317 2.326" fill="#B4B4B4"/>
        <path d="M56.686 48.302h-9.189a1.657 1.657 0 0 1-1.654-1.66v-9.223c0-.917.74-1.66 1.654-1.66h9.189c.914 0 1.654.743 1.654 1.66v9.223c0 .916-.74 1.66-1.654 1.66M77.388 48.302H68.2a1.657 1.657 0 0 1-1.654-1.66v-9.223c0-.917.74-1.66 1.654-1.66h9.19c.913 0 1.653.743 1.653 1.66v9.223c0 .916-.74 1.66-1.654 1.66M98.09 48.302h-9.189a1.657 1.657 0 0 1-1.653-1.66v-9.223c0-.917.74-1.66 1.653-1.66h9.19c.913 0 1.653.743 1.653 1.66v9.223c0 .916-.74 1.66-1.654 1.66M118.793 48.302h-9.19a1.657 1.657 0 0 1-1.653-1.66v-9.223c0-.917.74-1.66 1.654-1.66h9.189c.913 0 1.653.743 1.653 1.66v9.223c0 .916-.74 1.66-1.653 1.66M139.495 48.302h-9.189a1.657 1.657 0 0 1-1.654-1.66v-9.223c0-.917.74-1.66 1.654-1.66h9.189c.914 0 1.654.743 1.654 1.66v9.223c0 .916-.74 1.66-1.654 1.66M56.686 69.953h-9.189a1.657 1.657 0 0 1-1.654-1.66V59.07c0-.917.74-1.66 1.654-1.66h9.189c.914 0 1.654.743 1.654 1.66v9.223c0 .916-.74 1.66-1.654 1.66M77.388 69.953H68.2a1.657 1.657 0 0 1-1.654-1.66V59.07c0-.917.74-1.66 1.654-1.66h9.19c.913 0 1.653.743 1.653 1.66v9.223c0 .916-.74 1.66-1.654 1.66M98.09 69.953h-9.189a1.657 1.657 0 0 1-1.653-1.66V59.07c0-.917.74-1.66 1.653-1.66h9.19c.913 0 1.653.743 1.653 1.66v9.223c0 .916-.74 1.66-1.654 1.66M118.793 69.953h-9.19a1.657 1.657 0 0 1-1.653-1.66V59.07c0-.917.74-1.66 1.654-1.66h9.189c.913 0 1.653.743 1.653 1.66v9.223c0 .916-.74 1.66-1.653 1.66M139.495 69.953h-9.189a1.657 1.657 0 0 1-1.654-1.66V59.07c0-.917.74-1.66 1.654-1.66h9.189c.914 0 1.654.743 1.654 1.66v9.223c0 .916-.74 1.66-1.654 1.66M56.686 91.603h-9.189a1.657 1.657 0 0 1-1.654-1.66v-9.222c0-.917.74-1.66 1.654-1.66h9.189c.914 0 1.654.743 1.654 1.66v9.223c0 .916-.74 1.66-1.654 1.66M77.388 91.603H68.2a1.657 1.657 0 0 1-1.654-1.66v-9.222c0-.917.74-1.66 1.654-1.66h9.19c.913 0 1.653.743 1.653 1.66v9.223c0 .916-.74 1.66-1.654 1.66M98.09 91.603h-9.189a1.657 1.657 0 0 1-1.653-1.66v-9.222c0-.917.74-1.66 1.653-1.66h9.19c.913 0 1.653.743 1.653 1.66v9.223c0 .916-.74 1.66-1.654 1.66" fill="#FFF"/>
        <path d="M118.793 91.603h-9.19a1.657 1.657 0 0 1-1.653-1.66v-9.222c0-.917.74-1.66 1.654-1.66h9.189c.913 0 1.653.743 1.653 1.66v9.223c0 .916-.74 1.66-1.653 1.66" fill="#8E2770"/>
        <path d="M139.495 91.603h-9.189a1.657 1.657 0 0 1-1.654-1.66v-9.222c0-.917.74-1.66 1.654-1.66h9.189c.914 0 1.654.743 1.654 1.66v9.223c0 .916-.74 1.66-1.654 1.66" fill="#FFF"/>
        <g transform="translate(0 55.664)">
            <mask id="f51cyuvk3b" fill="#fff">
                <use xlink:href="#i6bwuqsm7a"/>
            </mask>
            <path d="M59.12 29.668c0 16.386-13.234 29.668-29.56 29.668S0 46.054 0 29.668C0 13.283 13.234 0 29.56 0s29.56 13.283 29.56 29.668" fill="#666" mask="url(#f51cyuvk3b)"/>
        </g>
        <path d="M54.39 85.332c0 13.764-11.117 24.922-24.83 24.922-13.713 0-24.83-11.158-24.83-24.922 0-13.764 11.117-24.922 24.83-24.922 13.713 0 24.83 11.158 24.83 24.922" fill="#FFF"/>
        <path d="M30.895 65.158c0 .74-.597 1.34-1.335 1.34-.737 0-1.336-.6-1.336-1.34 0-.74.599-1.34 1.336-1.34.738 0 1.335.6 1.335 1.34M20.666 67.19c.369.64.15 1.46-.489 1.831a1.332 1.332 0 0 1-1.824-.49c-.37-.642-.15-1.462.489-1.832a1.333 1.333 0 0 1 1.824.491M12.82 74.084c.638.37.858 1.19.489 1.83a1.332 1.332 0 0 1-1.824.492 1.342 1.342 0 0 1-.49-1.831 1.333 1.333 0 0 1 1.825-.491M9.459 83.992c.737 0 1.335.6 1.335 1.34 0 .74-.598 1.34-1.335 1.34-.738 0-1.335-.6-1.335-1.34 0-.74.597-1.34 1.335-1.34M11.484 94.258a1.333 1.333 0 0 1 1.824.491c.37.641.15 1.461-.489 1.831a1.332 1.332 0 0 1-1.824-.49c-.369-.641-.15-1.461.49-1.832M18.353 102.133a1.333 1.333 0 0 1 1.824-.49c.64.37.858 1.19.489 1.83a1.332 1.332 0 0 1-1.824.491 1.343 1.343 0 0 1-.49-1.83M28.224 105.507c0-.74.598-1.34 1.335-1.34.738 0 1.337.6 1.337 1.34 0 .74-.599 1.34-1.337 1.34-.737 0-1.335-.6-1.335-1.34M38.454 103.474c-.37-.64-.15-1.46.489-1.831a1.332 1.332 0 0 1 1.824.49c.369.642.15 1.462-.489 1.832-.638.37-1.455.15-1.824-.491M46.3 96.58a1.343 1.343 0 0 1-.489-1.83 1.332 1.332 0 0 1 1.824-.492c.64.37.858 1.19.49 1.831a1.333 1.333 0 0 1-1.825.491M49.66 86.673c-.737 0-1.334-.6-1.334-1.34 0-.74.597-1.342 1.335-1.342s1.335.601 1.335 1.341-.597 1.34-1.335 1.34M47.636 76.406c-.639.37-1.456.15-1.825-.491-.368-.64-.15-1.46.49-1.831a1.332 1.332 0 0 1 1.824.49c.369.642.15 1.462-.49 1.832M40.767 68.53a1.333 1.333 0 0 1-1.824.492 1.342 1.342 0 0 1-.49-1.831 1.332 1.332 0 0 1 1.825-.491c.639.37.858 1.19.49 1.83M30.974 85.332c0 .784-.633 1.42-1.415 1.42-.78 0-1.413-.636-1.413-1.42 0-.784.633-1.42 1.413-1.42.782 0 1.415.636 1.415 1.42" fill="#666"/>
        <path stroke="#666" stroke-width="1.167" stroke-linecap="round" stroke-linejoin="round" d="M29.56 70.686v14.646h9.006"/>
    </g>
</svg>
