<svg xmlns="http://www.w3.org/2000/svg" xmlns:xlink="http://www.w3.org/1999/xlink" width="68" height="18" viewBox="0 0 68 18">
  <defs>
    <clipPath id="clip-path">
      <rect id="Rectangle_11" data-name="Rectangle 11" width="64.321" height="13.5" transform="translate(0 0)" fill="rgba(0,0,0,0)"/>
    </clipPath>
  </defs>
  <g id="img-logo-lets_gram" data-name="img-logo-lets gram" transform="translate(-90.187 3)">
    <rect id="guide" width="68" height="18" transform="translate(90.187 -3)" fill="none"/>
    <g id="Group_826" data-name="Group 826" transform="translate(92.187 0.5)">
      <g id="Group_825" data-name="Group 825" transform="translate(0 0)" clip-path="url(#clip-path)">
        <path id="Path_354" data-name="Path 354" d="M93.648,16.494h1.932a1.59,1.59,0,0,0,1.227-.427A1.752,1.752,0,0,0,97.2,14.84v-.087H95.51a3.776,3.776,0,0,1-1.558-.243,3.282,3.282,0,0,1-1.21-.818,3.745,3.745,0,0,1-.782-1.314,5.085,5.085,0,0,1-.279-1.732,4.34,4.34,0,0,1,.992-3.037A3.642,3.642,0,0,1,95.51,6.522h2.923v8.231a2.936,2.936,0,0,1-.739,2.167,2.786,2.786,0,0,1-2.062.74H93.056Zm1.827-8.806a2.277,2.277,0,0,0-1.845.766,3.317,3.317,0,0,0-.643,2.193,3.357,3.357,0,0,0,.635,2.184A2.178,2.178,0,0,0,95.4,13.6h1.741V7.688Z" transform="translate(-58.469 -4.159)" fill="#1d1d1b"/>
        <path id="Path_355" data-name="Path 355" d="M114.017,14.771V9.463a3.464,3.464,0,0,1,.2-1.192,2.721,2.721,0,0,1,.558-.931,2.534,2.534,0,0,1,.861-.6,2.789,2.789,0,0,1,1.114-.217h1.914l-.591,1.166h-1.236a1.4,1.4,0,0,0-1.1.47,1.814,1.814,0,0,0-.418,1.253v5.36Z" transform="translate(-72.714 -4.159)" fill="#1d1d1b"/>
        <path id="Path_356" data-name="Path 356" d="M129.425,14.771a2.773,2.773,0,0,1-1.131-.209,2.238,2.238,0,0,1-.774-.548,2.209,2.209,0,0,1-.452-.774,2.748,2.748,0,0,1-.148-.887,2.7,2.7,0,0,1,.148-.87,2.2,2.2,0,0,1,.452-.774,2.239,2.239,0,0,1,.774-.548,2.779,2.779,0,0,1,1.131-.209h3.341V9.323a1.663,1.663,0,0,0-.417-1.21,1.612,1.612,0,0,0-1.2-.426h-3.341l.591-1.166h2.715a3.02,3.02,0,0,1,2.21.739,2.765,2.765,0,0,1,.73,2.1v5.412Zm.035-3.69a1.1,1.1,0,0,0-.922.4,1.369,1.369,0,0,0-.009,1.732,1.066,1.066,0,0,0,.9.392h3.341V11.081Z" transform="translate(-80.943 -4.159)" fill="#1d1d1b"/>
        <path id="Path_357" data-name="Path 357" d="M158.852,14.771V9.15q0-1.463-1.376-1.462h-1.653v7.083h-1.287V7.688H151.56v7.083h-1.288V6.522H157.6a2.814,2.814,0,0,1,1.053.191,2.259,2.259,0,0,1,.809.539,2.461,2.461,0,0,1,.514.827,2.925,2.925,0,0,1,.183,1.053v5.638Z" transform="translate(-95.836 -4.159)" fill="#1d1d1b"/>
        <path id="Path_358" data-name="Path 358" d="M0,10.547H5.912V8.355H2.619V0A2.7,2.7,0,0,0,0,2.773Zm15.683,0h4.468l1.112-2.192H18.3V4.144h.063a1.022,1.022,0,0,0,1.02-1.02v-.7H18.3V0H15.683V2.424h-.915v1.72h.915Zm4.362-6.285V5.452a2.4,2.4,0,0,0,1.856-.73,3.378,3.378,0,0,0,.581-2.163V0H20.045V2.3h.976v.625a1.67,1.67,0,0,1-.224.951,1.036,1.036,0,0,1-.751.385M11.73,5.627h-2.3V4.557h2.3ZM7.236,10.547H11.67a2.257,2.257,0,0,0,2.254-2.254V7.82H11.733v.535H9.428V7.285h4.5l0-2.6A2.257,2.257,0,0,0,11.67,2.426H9.49A2.257,2.257,0,0,0,7.236,4.681Zm14.712,0h5.475a2.257,2.257,0,0,0,2.254-2.254v-2.6H25.454V4.618h3.074L29.64,2.426H25.517a2.258,2.258,0,0,0-2.255,2.255v2.6h4.223v1.07H23.057Z" transform="translate(0 0)" fill="#1d1d1b"/>
      </g>
    </g>
  </g>
</svg>
