<svg xmlns="http://www.w3.org/2000/svg" width="103" height="18" viewBox="0 0 103 18">
    <g fill="none" fill-rule="evenodd">
        <g>
            <g>
                <g>
                    <g>
                        <g>
                            <path d="M0 0H102V18H0z" transform="translate(-249 -72) translate(120 64) translate(129 8)"/>
                            <path fill="#222" d="M30.71 12.121v-.762c0-.025-.003-.048-.004-.069l-.001-.02c-.035-1.449-.854-2.247-2.307-2.247h-4.382c-.604-.02-.963-.394-.965-1.005V6.895l.002-.024c.013-.548.455-.926 1.076-.926h5.986v-1.18h-5.933c-1.218 0-2.013.597-2.242 1.68-.047.216-.07.431-.07.659v.762c0 .015 0 .03.002.045v.047c.035 1.446.855 2.243 2.31 2.243l4.381.001c.61.022.96.385.965 1.005v1.123c0 .012-.002.022-.003.027-.014.544-.454.923-1.076.923h-6.338v1.178h6.29c1.215 0 2.01-.598 2.237-1.68.047-.208.071-.429.071-.657M33.031 14.477L34.192 14.477 34.192 4.765 33.031 4.765zM44.726 9.088h-4.532v1.163h3.32v1.531c0 1.011-.505 1.503-1.543 1.503h-3.394c-.949 0-1.54-.577-1.54-1.503V7.444c0-.946.591-1.535 1.54-1.535H44.2V4.765h-5.575c-1.78 0-2.803 1.04-2.803 2.854v3.986c0 1.815 1.023 2.857 2.803 2.857h3.295c1.81 0 2.806-1.014 2.806-2.857V9.088zM63.826 12.09l1.07 2.386h1.343l-4.433-9.71h-1.461l-4.433 9.71h1.327l1.075-2.387h5.512zm-2.75-6.133l2.222 4.954h-4.452l2.23-4.954zM55.072 14.468L55.072 4.765 53.891 4.765 53.891 13.033 47.962 4.774 46.425 4.774 46.425 14.477 47.58 14.477 47.58 6.214 53.489 14.468zM73.077 4.765L64.841 4.765 64.841 5.912 68.335 5.912 68.335 14.443 69.583 14.443 69.583 5.912 73.077 5.912zM82.721 4.765h-1.247v6.759c0 1.154-.576 1.764-1.667 1.764h-2.566c-1.09 0-1.667-.61-1.667-1.766V4.765h-1.246v6.613c0 2.05.986 3.087 2.931 3.087h2.468c1.986 0 2.994-1.037 2.994-3.087V4.765zM91.742 14.47h1.22c-.102-1.566-.641-2.735-1.608-3.474l-.096-.073.113-.031c.727-.2 1.593-.773 1.593-2.36V7.266c0-1.637-.853-2.5-2.469-2.5h-6.122v9.679h1.216v-3.473h2.87c2.439 0 3.255 2.317 3.283 3.499zm-6.153-8.557h4.864c.799 0 1.295.46 1.295 1.205l.001 1.503c0 .766-.452 1.205-1.24 1.205h-4.92V5.913zM102.241 5.904L102.241 4.765 94.418 4.765 94.418 14.462 102.241 14.462 102.241 13.318 95.63 13.318 95.63 10.174 102.109 10.174 102.109 9.029 95.63 9.029 95.63 5.904z" transform="translate(-249 -72) translate(120 64) translate(129 8)"/>
                            <g fill="#222">
                                <path d="M2.305.148L0 .148 0 10.125 7.08 10.125 7.08 8.182 2.305 8.182zM12.151 6.322h1.877v1.744c-.346.134-1.02.264-1.663.264-2.074 0-2.766-1.054-2.766-3.194 0-2.04.658-3.244 2.733-3.244 1.153 0 1.81.362 2.354 1.056l1.433-1.32C15.246.378 13.715 0 12.28 0 9.054 0 7.36 1.76 7.36 5.12c0 3.343 1.53 5.153 4.906 5.153 1.548 0 3.062-.395 3.886-.972v-4.84h-4v1.86z" transform="translate(-249 -72) translate(120 64) translate(129 8) translate(0 4)"/>
                            </g>
                        </g>
                    </g>
                </g>
            </g>
        </g>
    </g>
</svg>
