<?xml version="1.0" encoding="utf-8"?>
<!-- Generator: Adobe Illustrator 27.8.1, SVG Export Plug-In . SVG Version: 6.00 Build 0)  -->
<svg version="1.1" id="Layer_1" xmlns="http://www.w3.org/2000/svg" xmlns:xlink="http://www.w3.org/1999/xlink" x="0px" y="0px"
	 viewBox="0 0 64 64" style="enable-background:new 0 0 64 64;" xml:space="preserve">
<style type="text/css">
	.st0{fill-rule:evenodd;clip-rule:evenodd;}
	.st1{fill:#FD312E;}
</style>
<path class="st0" d="M57.4,15.9H6.6v2.6h50.8V15.9z"/>
<path class="st0" d="M23,3.1c0-0.7-0.5-1.3-1.2-1.3c-0.7,0-1.2,0.6-1.2,1.3v3.3H23V3.1z M44.3,6.4h-2.4V3.1c0-0.7,0.5-1.3,1.2-1.3
	c0.7,0,1.2,0.6,1.2,1.3V6.4z"/>
<path class="st0" d="M57,9H7C6.8,9,6.6,9.1,6.6,9.4l0,49.9c0,0.2,0.2,0.4,0.4,0.4H57c0.2,0,0.4-0.2,0.4-0.4l0-49.9
	C57.4,9.1,57.3,9,57,9z M7,6.4c-1.6,0-2.8,1.3-2.8,3l0,49.9c0,1.7,1.3,3,2.8,3H57c1.6,0,2.8-1.3,2.8-3l0-49.9c0-1.7-1.3-3-2.8-3H7z"
	/>
<path d="M50.9,41h-2v-0.4h-3.4v-1.4H49v-1.2c-0.3,0.1-0.7,0.2-1,0.3c-0.4,0.1-0.7,0.2-1.1,0.2c-0.4,0.1-0.8,0.1-1.2,0.2
	c-0.4,0-0.7,0.1-1.1,0.1h-1.2V41h-2v-2.3h-4.1v-1.5h6.8c0.8,0,1.6,0,2.4-0.1c0.8-0.1,1.6-0.3,2.4-0.5v-4.9h2V41z M42.8,36.5
	c-1.4,0-2.5-0.2-3.2-0.6c-0.7-0.4-1.1-1.1-1.1-1.9c0-0.9,0.4-1.5,1.1-1.9c0.7-0.4,1.8-0.6,3.2-0.6s2.5,0.2,3.2,0.6
	c0.7,0.4,1.1,1,1.1,1.9c0,0.9-0.4,1.5-1.1,1.9C45.3,36.3,44.2,36.5,42.8,36.5z M42.8,35.2c0.8,0,1.4-0.1,1.8-0.3
	c0.4-0.2,0.6-0.5,0.6-0.9c0-0.4-0.2-0.7-0.6-0.9c-0.4-0.2-1-0.3-1.8-0.3c-0.8,0-1.4,0.1-1.8,0.3c-0.4,0.2-0.6,0.5-0.6,0.9
	c0,0.4,0.2,0.7,0.6,0.9C41.3,35.1,42,35.2,42.8,35.2z M50.9,45.2h-8.6v0.7c0,0.1,0,0.2,0,0.2c0,0,0.1,0,0.2,0h8.7v1.4h-9.9
	c-0.4,0-0.6-0.1-0.8-0.2c-0.1-0.2-0.2-0.4-0.2-0.7v-2.7H49V43h-8.5v-1.4h10.4V45.2z"/>
<path class="st1" d="M18.1,47.5V32.4l-4.7,3.1L12,33.5l6.1-4.2H21v18.2H18.1z"/>
<path class="st1" d="M35.9,47.5H23.3v-1.7l5.9-5.8c0.7-0.7,1.2-1.2,1.7-1.7s0.8-0.9,1.1-1.4c0.3-0.4,0.5-0.8,0.6-1.2
	c0.1-0.4,0.2-0.8,0.2-1.3c0-0.4-0.1-0.8-0.2-1.1c-0.2-0.4-0.4-0.7-0.7-1c-0.3-0.3-0.6-0.5-1.1-0.6c-0.4-0.2-0.9-0.2-1.4-0.2
	c-1,0-1.9,0.2-2.6,0.7c-0.7,0.5-1.3,1-1.7,1.6l-1.7-1.7c0.3-0.4,0.6-0.8,1.1-1.1c0.4-0.4,0.9-0.7,1.4-0.9c0.5-0.3,1-0.5,1.6-0.6
	c0.6-0.2,1.2-0.2,1.8-0.2c1,0,1.9,0.1,2.6,0.4c0.8,0.3,1.4,0.6,1.9,1.1c0.5,0.5,1,1,1.2,1.7c0.3,0.6,0.4,1.4,0.4,2.1
	c0,0.6-0.1,1.1-0.2,1.7c-0.1,0.5-0.4,1.1-0.7,1.6c-0.3,0.5-0.7,1.1-1.3,1.7c-0.5,0.6-1.2,1.3-1.9,2l-4.1,3.9h8.6V47.5z"/>
</svg>
