<svg xmlns="http://www.w3.org/2000/svg" width="64" height="64" viewBox="0 0 64 64">
    <g fill="none" fill-rule="evenodd">
        <g>
            <g>
                <path d="M0 0H64V64H0z" transform="translate(-2709 -937) translate(2709 937)"/>
                <g fill="#222">
                    <path d="M20 0c11.046 0 20 6.935 20 15.49 0 8.553-8.954 15.489-20 15.489-1.269 0-2.51-.093-3.712-.268-2.217 1.477-7.353 4.898-7.697 5.123-.439.286-1.109.3-.837-.765.22-.858 1.316-4.871 1.734-6.4C3.794 25.937 0 21.056 0 15.488 0 6.935 8.954 0 20 0zm8.471 10.887c-.55 0-1.112.223-1.1.652.02.736-.02 7.076-.025 8.202v.14c0 .788 1.965.82 2.128.097l.011-.099v-2.77l.629-.494 2.748 3.673c.536.694 2.187-.495 1.796-1.223l-.048-.074-2.918-3.764s1.836-1.946 2.67-2.77l.09-.089c.44-.427-.852-1.733-1.356-1.432l-.054.042c-.412.4-3.141 3.076-3.503 3.431l-.04.04v-.042c.004-.271.024-1.804.002-2.783l-.004-.143c-.01-.37-.437-.563-.908-.59l-.118-.004zm-12.62.002c-.49 0-.968.176-1.17.614-.496 1.069-2.24 5.976-2.913 7.562l-.068.157c-.429.969 1.349 1.763 1.87.91l.049-.094.416-1.429h3.814s-.12.054.31 1.198l.066.17c.396 1.026 2.263.37 2.011-.633l-.032-.102c-.566-1.468-2.49-6.64-2.942-7.656l-.038-.083c-.156-.328-.683-.57-1.225-.608l-.147-.006zm6.298-.006c-.565 0-1.131.313-1.129.937v.295c.004 1.879.01 6.408.01 7.111v.093s-.15 1.022.681 1.13l.148.008c.918 0 2.872-.008 3.938-.009h.246c.942 0 .974-1.882.108-2.033l-.113-.01h-.599c-.917-.002-2.036-.008-2.157-.01h-.011v-.104c0-.477.004-2.492.005-4.198v-2.278c-.001-.58-.491-.89-1.014-.928l-.113-.004zm-10.069-.328H5.741c-1.179 0-1.218 1.951-.124 2.09l.126.008h2.085v.386c.004 1.259.011 5.241.003 6.49l-.001.111c.002.918 2.005.998 2.156.156l.009-.105.009-6.837s.62-.133 1.84-.148h.235c1.25 0 1.296-2.005.13-2.144l-.129-.007zm3.9 2.616l1.16 3.56h-2.417l1.257-3.56z" transform="translate(-2709 -937) translate(2709 937) translate(12 14)"/>
                </g>
            </g>
        </g>
    </g>
</svg>
