<svg xmlns="http://www.w3.org/2000/svg" width="48" height="48" viewBox="0 0 48 48">
    <g transform="translate(7.094 7.301)">
        <path data-name="패스 48324" d="M16.581 2h-.544L16 2.544l-.2 3.25a13.675 13.675 0 0 0-3.024 1.25L10.334 4.89l-.408-.36-.385.385-4.127 4.131-.385.385.36.408 2.153 2.441a13.567 13.567 0 0 0-1.25 3.02l-3.248.2-.544.034v6.928l.543.034 3.25.2a13.677 13.677 0 0 0 1.25 3.024l-2.154 2.447-.36.408.385.385 4.127 4.127.385.385.408-.36 2.441-2.153a13.571 13.571 0 0 0 3.024 1.25l.2 3.249.034.543h6.927l.04-.543.2-3.249a13.677 13.677 0 0 0 3.024-1.25l2.441 2.153.408.36.385-.385 4.127-4.127.385-.385-.36-.408-2.153-2.441a13.57 13.57 0 0 0 1.25-3.024l3.249-.2.543-.034v-6.931l-.543-.034-3.25-.2a13.678 13.678 0 0 0-1.25-3.024l2.153-2.441.36-.408-.385-.385-4.129-4.13-.385-.385-.408.36-2.441 2.153a13.569 13.569 0 0 0-3.021-1.25L23 2.545 22.964 2h-6.383z" transform="translate(-2.094 -1.802)" style="fill-rule:evenodd;fill:none;stroke:#000;stroke-width:1.5px"/>
        <circle data-name="타원 149" cx="8" cy="8" r="8" transform="translate(9.407 9.199)" style="fill:none;stroke:#000;stroke-width:1.5px"/>
    </g>
</svg>
