<svg width="46" height="46" viewBox="0 0 46 46" xmlns="http://www.w3.org/2000/svg">
    <g fill="none" fill-rule="evenodd">
        <path d="M23 1.078a21.89 21.89 0 0 1 8.39 1.669 21.875 21.875 0 0 1 5.517 3.307 21.91 21.91 0 0 1 7.91 14.797 21.889 21.889 0 0 1-.84 8.513 21.88 21.88 0 0 1-4.031 7.543 21.91 21.91 0 0 1-14.797 7.91 21.889 21.889 0 0 1-8.513-.84 21.872 21.872 0 0 1-5.815-2.75 21.892 21.892 0 0 1-6.048-6.048 21.896 21.896 0 0 1-3.59-10.03 21.889 21.889 0 0 1 .84-8.513 21.872 21.872 0 0 1 2.75-5.815 21.892 21.892 0 0 1 6.048-6.048 21.896 21.896 0 0 1 10.03-3.59c.715-.07 1.431-.105 2.149-.105z" stroke="#FFF" stroke-width="2.156" fill-opacity=".5" fill="#000" fill-rule="nonzero"/>
        <g fill="#FFF">
            <path d="M25.875 30.188V15.813a1.424 1.424 0 0 1 .421-1.017 1.425 1.425 0 0 1 1.017-.421 1.424 1.424 0 0 1 1.016.421 1.425 1.425 0 0 1 .421 1.017v14.374a1.424 1.424 0 0 1-.421 1.017 1.425 1.425 0 0 1-1.017.421 1.424 1.424 0 0 1-1.016-.421 1.425 1.425 0 0 1-.421-1.017zM17.25 30.188V15.813a1.424 1.424 0 0 1 .421-1.017 1.425 1.425 0 0 1 1.017-.421 1.424 1.424 0 0 1 1.016.421 1.425 1.425 0 0 1 .421 1.017v14.374a1.424 1.424 0 0 1-.421 1.017 1.425 1.425 0 0 1-1.017.421 1.424 1.424 0 0 1-1.016-.421 1.425 1.425 0 0 1-.421-1.017z"/>
        </g>
    </g>
</svg>
