<svg xmlns="http://www.w3.org/2000/svg" width="160" height="132" viewBox="0 0 160 132">
    <defs>
        <linearGradient id="d45573vpfc" x1=".336" y1=".05" x2=".664" y2=".95" gradientUnits="objectBoundingBox">
            <stop offset="0" stop-color="#e87484"/>
            <stop offset=".053" stop-color="#e3687b"/>
            <stop offset=".292" stop-color="#ce3b57"/>
            <stop offset=".504" stop-color="#c01b3e"/>
            <stop offset=".681" stop-color="#b7072e"/>
            <stop offset=".801" stop-color="#b40029"/>
            <stop offset="1" stop-color="#b40029"/>
        </linearGradient>
        <linearGradient id="k1ga4e8ckd" x1=".098" y1=".196" x2=".808" y2=".902" gradientUnits="objectBoundingBox">
            <stop offset="0" stop-color="#c12642"/>
            <stop offset=".084" stop-color="#b21d3a"/>
            <stop offset=".245" stop-color="#9e102f"/>
            <stop offset=".427" stop-color="#900727"/>
            <stop offset=".646" stop-color="#870123"/>
            <stop offset="1" stop-color="#850022"/>
        </linearGradient>
        <linearGradient id="06ylxuhmse" y1=".5" x2="1" y2=".5" gradientUnits="objectBoundingBox">
            <stop offset="0" stop-color="#b0b8bd"/>
            <stop offset=".086" stop-color="#a2a9ae"/>
            <stop offset=".522" stop-color="#5f666b"/>
            <stop offset=".839" stop-color="#353c42"/>
            <stop offset="1" stop-color="#262c32"/>
        </linearGradient>
        <linearGradient id="olvj4vztpf" y1=".5" x2="1" y2=".5" gradientUnits="objectBoundingBox">
            <stop offset="0" stop-color="#afb6bb"/>
            <stop offset=".118" stop-color="#9ba2a6"/>
            <stop offset=".539" stop-color="#585f63"/>
            <stop offset=".844" stop-color="#2e3539"/>
            <stop offset="1" stop-color="#1f2629"/>
        </linearGradient>
        <linearGradient id="hzp59mp0eg" x1="27.871" y1="163.581" x2="27.958" y2="163.581" gradientUnits="objectBoundingBox">
            <stop offset="0" stop-color="#a6b5bc"/>
            <stop offset="1" stop-color="#1c1f24"/>
        </linearGradient>
        <linearGradient id="hr0p3zpb4h" x1="6.09" y1="24.503" x2="6.103" y2="24.503" gradientUnits="objectBoundingBox">
            <stop offset="0" stop-color="#b0b8bd"/>
            <stop offset="1" stop-color="#2f363e"/>
        </linearGradient>
        <linearGradient id="9l9xr5smdi" x1="7.093" y1="26.458" x2="7.108" y2="26.458" gradientUnits="objectBoundingBox">
            <stop offset="0" stop-color="#b0b8bd"/>
            <stop offset="1" stop-color="#384149"/>
        </linearGradient>
        <radialGradient id="3343q8fm4b" cx=".481" cy=".485" r=".521" gradientTransform="matrix(1 0 0 -1 .001 42.738)" gradientUnits="objectBoundingBox">
            <stop offset="0" stop-color="#b40029"/>
            <stop offset=".5" stop-color="#b40029"/>
            <stop offset=".752" stop-color="#b10028"/>
            <stop offset=".857" stop-color="#aa0026"/>
            <stop offset=".935" stop-color="#9e0022"/>
            <stop offset="1" stop-color="#8d001e"/>
        </radialGradient>
        <radialGradient id="ymtf2folrj" cx=".298" cy=".288" r=".764" gradientTransform="translate(.002)" gradientUnits="objectBoundingBox">
            <stop offset="0" stop-color="#fff"/>
            <stop offset=".35" stop-color="#fff"/>
            <stop offset=".508" stop-color="#fafbfb"/>
            <stop offset=".672" stop-color="#eef1f3"/>
            <stop offset=".837" stop-color="#d9e0e4"/>
            <stop offset="1" stop-color="#becad0"/>
        </radialGradient>
        <radialGradient id="q6nc3oe0tk" cx=".293" cy=".316" r=".78" gradientTransform="translate(-.068)" gradientUnits="objectBoundingBox">
            <stop offset="0" stop-color="#fff"/>
            <stop offset=".35" stop-color="#fff"/>
            <stop offset=".539" stop-color="#fafbfc"/>
            <stop offset=".735" stop-color="#eef2f4"/>
            <stop offset=".933" stop-color="#d9e2e6"/>
            <stop offset="1" stop-color="#d1dce1"/>
        </radialGradient>
        <clipPath id="1krpjoglxa">
            <path data-name="사각형 18" style="fill:none" d="M0 0h132.129v13.939H0z"/>
        </clipPath>
    </defs>
    <path data-name="Fill 46" d="M79.423 34.269a1.276 1.276 0 0 0 2.128 0l8.472-12.757a11.487 11.487 0 1 0-19.072 0z"/>
    <path data-name="Fill 48" d="M11.52 5.77A5.76 5.76 0 1 1 5.76 0a5.765 5.765 0 0 1 5.76 5.77" transform="translate(74.727 9.33)" style="fill:#fff"/>
    <g transform="translate(3.31 43.207)">
        <g data-name="그룹 34">
            <path data-name="패스 41" d="M1093.49 394.424H943.407l-.016 86.061h150.1z" transform="translate(-941.543 -391.692)" style="fill:#e9e8e8"/>
            <path data-name="패스 42" d="M1065.962 395.636h-43.187l-65.826 86.038h73.879z" transform="translate(-933.581 -392.904)" style="opacity:.35;fill:#fff"/>
            <g data-name="그룹 43">
                <path data-name="패스 44" d="m1093.695 480.869-149.74.016v1.15l149.74-.134z" transform="translate(-941.882 -409.278)" style="fill:#f9f9f9;opacity:.6"/>
                <path data-name="패스 117" d="m1093.695 480.869-149.74.016v1.15l149.74-.134z" transform="translate(-941.882 -447.845)" style="fill:#f9f9f9;opacity:.6"/>
                <path data-name="패스 49" d="m1054.068 476.766-.276-54.56h-.651l.278 54.562z" transform="translate(-930.331 -388.017)" style="fill:#c3c4c7"/>
                <path data-name="패스 50" d="m1030.7 476.87-.3-54.561h-.7l.3 54.563z" transform="translate(-930.199 -388.119)" style="fill:#c3c4c7"/>
                <path data-name="패스 52" d="m1007.206 476.325-.283-53.918h-.658l.283 53.921z" transform="translate(-930.073 -388.216)" style="fill:#c3c4c7"/>
                <path data-name="패스 53" d="m1006.552 481.032.161 35.306h.649l-.16-35.3z" transform="translate(-930.079 -429.291)" style="fill:#d2d2d2"/>
                <path data-name="패스 55" d="m983.776 476.952-.285-54.449h-.665l.282 54.449z" transform="translate(-929.945 -388.314)" style="fill:#c3c4c7"/>
                <path data-name="사각형 28" transform="rotate(-.222 13403.84 -13695.374)" style="fill:#d2d2d2" d="M0 0h.675v35.216H0z"/>
                <path data-name="패스 57" d="M960.053 422.6h-.662l.282 54.446h.663z" transform="translate(-929.812 -388.412)" style="fill:#c3c4c7"/>
                <path data-name="패스 128" d="M.662 0 0 .013.282 149.74h.663z" transform="rotate(90 59.575 92.238)" style="fill:#c3c4c7"/>
                <path data-name="패스 59" d="m1082.353 480.1-23.726.086h-.68l-23.723.09h-.679l-23.724.09h-.679l-23.724.09h-.684l-23.721.09h-.68l-16.811.065v.61l16.818-.088h.679l23.724-.087h.679l23.726-.089h.68l23.722-.092h.683l23.72-.09h.679l23.727-.088h.679l10.223-.039v-.548h-10.23z" transform="translate(-941.449 -409.216)" style="fill:#c3c4c7"/>
            </g>
            <path data-name="패스 61" d="M1073.347 482.746h-60.372v39.523h60.372z" transform="translate(-965.804 -433.499)" style="fill:#4075a5"/>
            <path data-name="패스 62" d="m1072.58 484.811-57.185-.175v37.706l57.185-.276z" transform="translate(-965.899 -433.574)" style="fill:#b7ae9f"/>
            <path data-name="패스 63" d="m1071.6 484.811-56.2-.175v37.706h56.625z" transform="translate(-965.899 -433.574)" style="fill:#95cbec"/>
            <path data-name="패스 64" d="m1072.252 486.477-56.858-.174v36.105h56.858z" transform="translate(-965.899 -433.638)" style="fill:#c8e1f0"/>
            <path data-name="패스 65" d="M.721 0H0l3 33.387h.721z" transform="rotate(5.13 -580.63 1173.293)" style="fill:#95cbec"/>
            <path data-name="패스 67" d="M1045.129 489.828h26.75l-.505-3.351-55.98-.175v36.128h29.735z" transform="translate(-965.899 -433.638)" style="fill:#95cbec"/>
            <path data-name="패스 68" d="m1030.478 522.349 22.934-37.375 17.455-.172-12.17 37.546z" transform="translate(-967.868 -433.58)" style="mix-blend-mode:overlay;isolation:isolate;opacity:.4;fill:#c8e1f0"/>
            <path data-name="사각형 30" transform="translate(72.574 50.422)" style="fill:#4075a5" d="M0 0h1.12v38.371H0z"/>
            <path data-name="사각형 31" transform="translate(105.561 50.422)" style="fill:#4075a5" d="M0 0h1.983v38.348H0z"/>
            <path data-name="사각형 32" transform="translate(73.152 64.119)" style="fill:#4075a5" d="M0 0h33.21v1.12H0z"/>
            <path data-name="패스 73" d="M1056.806 522.88h.548l-.057-24.553h-.548z" transform="translate(-967.521 -434.11)" style="fill:#4075a5"/>
            <path data-name="사각형 34" transform="translate(89.726 77.644)" style="fill:#4075a5" d="M0 0h2.582v4.504H0z"/>
            <path data-name="사각형 35" transform="translate(86.724 77.644)" style="fill:#4075a5" d="M0 0h2.582v4.504H0z"/>
            <path data-name="패스 127" d="M1093.49 394.424H943.407l-.016 30.066h150.1z" transform="translate(-941.543 -391.692)" style="fill:#f3f3f3"/>
        </g>
        <g data-name="LG bestshop">
            <g data-name="그룹 33" style="clip-path:url(#1krpjoglxa)" transform="translate(10.833 10.395)">
                <g data-name="그룹 28">
                    <g data-name="그룹 27" style="clip-path:url(#1krpjoglxa)">
                        <path data-name="패스 29" d="M112.332 7.828v1.318h1.816v.338c0 1.357-.549 2.077-2.025 2.545l.558 1.257a3.654 3.654 0 0 0 2.425-1.656 3.563 3.563 0 0 0 2.284 1.595l.708-1.436c-1.287-.28-2.215-.978-2.215-2.315v-.33h1.787V7.828zm8.271-.18h-1.666v1.9h-1.566v1.367h1.566v3.462h1.463a8.67 8.67 0 0 0 .2-1.827zm.169 7.962h-4.909c-.13 0-.17-.03-.17-.169v-1.946h-1.666v2.625a.747.747 0 0 0 .859.838h5.887zm.948-7.791v1.307h1.9v.632c0 1.665-.338 2.712-2.066 3.471l.65 1.157a4.24 4.24 0 0 0 2.343-1.955 4.3 4.3 0 0 0 2.2 1.864l.779-1.356a3.009 3.009 0 0 1-2.256-3.193v-.62h1.845V7.819zm9.656 2.306h-1.656V7.648h-1.6v9.309h1.4a11.459 11.459 0 0 0 .2-2.231v-3.264h1.656z" transform="translate(-78.899 -5.382)" style="fill:#6b6b6b"/>
                        <path data-name="패스 30" d="M60.135 17.281h3.808v-1.749h-4.3V8.3h-2.074v8.983z" transform="translate(-40.51 -5.839)" style="fill:#6b6b6b"/>
                        <path data-name="패스 31" d="M84.249 13.536h1.689v1.57a4.762 4.762 0 0 1-1.5.239c-1.868 0-2.491-.951-2.491-2.877 0-1.837.593-2.921 2.461-2.921a2.4 2.4 0 0 1 2.12.949l1.295-1.186a4.039 4.039 0 0 0-3.455-1.469c-2.906 0-4.433 1.587-4.433 4.611s1.378 4.642 4.417 4.642a6.606 6.606 0 0 0 3.5-.876V11.86h-3.6z" transform="translate(-56.248 -5.518)" style="fill:#6b6b6b"/>
                    </g>
                </g>
                <g data-name="그룹 32">
                    <g data-name="그룹 31" style="clip-path:url(#1krpjoglxa)">
                        <path data-name="패스 32" d="M229.436 12.452a2.139 2.139 0 0 1 1.539 2.16c0 1.763-1.176 2.664-3.048 2.664h-3.777V8.293h3.581c1.938 0 3.022.609 2.987 2.26a1.993 1.993 0 0 1-1.283 1.9M225.9 9.677v2.26h1.762a1.078 1.078 0 0 0 1.226-1.116c0-.931-.554-1.107-1.239-1.143zm0 3.6v2.564h1.759c.906.041 1.45-.3 1.426-1.277-.027-1.005-.588-1.318-1.412-1.287z" transform="translate(-157.731 -5.836)" style="fill:#6b6b6b"/>
                        <path data-name="패스 33" d="M251.355 8.293h5.7v1.44h-3.9v2.206h3.745v1.385h-3.75v2.515h4.05v1.436h-5.85z" transform="translate(-176.874 -5.836)" style="fill:#6b6b6b"/>
                        <path data-name="패스 34" d="M274.865 15.022a5.377 5.377 0 0 0 2.465.62c1.252 0 1.735-.446 1.735-1.029a1.087 1.087 0 0 0-.694-.917c-.707-.346-1.537-.582-2.317-.891-1.128-.546-1.71-1.054-1.71-2.4 0-1.6 1.2-2.565 3.419-2.565a6.252 6.252 0 0 1 2.96.668l-.606 1.338a4.815 4.815 0 0 0-2.342-.582c-1.152 0-1.622.4-1.622.99a.852.852 0 0 0 .285.682 2.775 2.775 0 0 0 .57.347c.6.26 1.487.545 2.218.88a2.338 2.338 0 0 1 1.61 2.354c0 1.6-1.314 2.589-3.48 2.589a7.323 7.323 0 0 1-3.159-.73z" transform="translate(-192.947 -5.515)" style="fill:#6b6b6b"/>
                        <path data-name="패스 35" d="M299.183 8.293h7.08v1.439h-2.615v7.543h-1.8V9.732h-2.669z" transform="translate(-210.53 -5.836)" style="fill:#6b6b6b"/>
                        <path data-name="패스 36" d="M337.445 15.022a5.377 5.377 0 0 0 2.465.62c1.251 0 1.735-.446 1.735-1.029a1.085 1.085 0 0 0-.694-.917c-.706-.346-1.536-.582-2.316-.891-1.127-.546-1.71-1.054-1.71-2.4 0-1.6 1.2-2.565 3.42-2.565a6.256 6.256 0 0 1 2.961.668l-.606 1.335a4.81 4.81 0 0 0-2.341-.582c-1.152 0-1.623.4-1.623.99a.852.852 0 0 0 .285.682 2.761 2.761 0 0 0 .57.347c.594.26 1.486.545 2.218.88a2.338 2.338 0 0 1 1.61 2.354c0 1.6-1.313 2.589-3.481 2.589a7.329 7.329 0 0 1-3.159-.73z" transform="translate(-236.983 -5.515)" style="fill:#6b6b6b"/>
                        <path data-name="패스 37" d="M363.967 8.293h1.792v3.748h3.7V8.293h1.794v8.982h-1.794v-3.8h-3.7v3.8h-1.792z" transform="translate(-256.117 -5.836)" style="fill:#6b6b6b"/>
                        <path data-name="패스 38" d="M400.2 12.437c0 3.05-1.382 4.58-4.245 4.58-2.936 0-3.911-1.814-3.911-4.666 0-3.061 1.358-4.568 4.221-4.568 2.9 0 3.936 1.778 3.936 4.655m-6.33.062c0 1.716.469 3.123 2.048 3.123 1.863 0 2.406-1.2 2.406-3.358 0-1.692-.443-3.123-2.048-3.123-1.789 0-2.406 1.222-2.406 3.358" transform="translate(-275.872 -5.476)" style="fill:#6b6b6b"/>
                        <path data-name="패스 39" d="M427.282 8.293h-3.37v8.982h1.8v-3.284h1.748a2.741 2.741 0 0 0 2.972-2.923c.022-1.845-1.046-2.775-3.146-2.775m-.13 4.312h-1.444V9.679h1.388a1.379 1.379 0 0 1 1.484 1.37c-.032.72-.266 1.582-1.429 1.556" transform="translate(-298.299 -5.836)" style="fill:#6b6b6b"/>
                    </g>
                </g>
                <g data-name="그룹 44">
                    <g data-name="그룹 143">
                        <path data-name="패스 228" d="M6.234 0a6.238 6.238 0 1 0 6.244 6.286v-.1A6.24 6.24 0 0 0 6.234 0z" style="fill:url(#3343q8fm4b)" transform="translate(.182 .732)"/>
                        <path data-name="패스 229" d="M4.827 4.8c-2.084 2.085-2.295 5.261-.465 7.092s5.005 1.62 7.09-.465 2.3-5.265.47-7.1A4.348 4.348 0 0 0 8.8 3.084 5.684 5.684 0 0 0 4.827 4.8" transform="translate(-2.631 -2.052)" style="fill:url(#d45573vpfc)"/>
                        <path data-name="패스 230" d="m15.538 17.868.155-.089V12.51l-.038-.062.038-.011v-.007h.027l.467-.159.083.144a.061.061 0 0 1 .012.041l-.005 4.8h1.134l.091.142a.086.086 0 0 1 .014.059v.483a.04.04 0 0 1-.035.042h-1.737a.168.168 0 0 1-.087-.026zm5.628-3.083h-3.859v.618l.1.129a.05.05 0 0 0 .034.012h3.228a4.7 4.7 0 0 1-8.007 2.985 4.714 4.714 0 0 1-.026-6.624 4.75 4.75 0 0 1 3.354-1.372h.281c.017 0 .033 0 .033-.041v-.509a.1.1 0 0 0-.013-.055l-.114-.142-.257.037-.13.043a5.216 5.216 0 0 0-5.127 5.365 5.317 5.317 0 0 0 10.63-.031v-.3zm-7.218-2.443a.832.832 0 1 0 .838.833.837.837 0 0 0-.838-.832z" transform="translate(-9.441 -8.103)" style="fill:url(#k1ga4e8ckd)"/>
                        <path data-name="패스 231" d="m61 91.688-.128.121h1.871l-.122-.126z" transform="translate(-54.778 -82.044)" style="fill:#505d66"/>
                        <path data-name="패스 232" d="m67.282 86.753.122-.118H66.18l-.146.118z" transform="translate(-59.437 -77.485)" style="fill:#788c95"/>
                        <path data-name="패스 233" d="M61.521 35.357h-.647l.122.115h.387z" transform="translate(-54.778 -31.19)" style="fill:#828e94"/>
                        <path data-name="패스 234" d="m66.113 40.448.135-.109v-4.982l-.139.115z" transform="translate(-59.504 -31.19)" style="fill:url(#06ylxuhmse)"/>
                        <path data-name="패스 235" d="M78.876 86.753v.372l.122.126v-.616z" transform="translate(-71.031 -77.485)" style="fill:url(#olvj4vztpf)"/>
                        <path data-name="패스 236" d="M60.874 35.357v5.6l.126-.123v-5.361z" transform="translate(-54.778 -31.19)" style="fill:#b0b8bd"/>
                        <path data-name="패스 237" d="M36.548 37.277a.694.694 0 1 0 .695-.691.693.693 0 0 0-.695.691z" transform="translate(-32.815 -32.3)" style="fill:none"/>
                        <path data-name="패스 238" d="M35.31 36.142a.814.814 0 1 0 .815-.814.813.813 0 0 0-.815.814zm1.508 0a.694.694 0 1 1-.693-.691.692.692 0 0 1 .693.691z" transform="translate(-31.697 -31.164)" style="fill:url(#hzp59mp0eg)"/>
                        <path data-name="패스 239" d="M82.214 66.127h-3.233l-.12.127h3.229l.064-.067z" transform="translate(-71.017 -58.967)" style="fill:#3f4c50"/>
                        <path data-name="패스 240" d="M67.413 16.188z" transform="translate(-60.682 -13.883)" style="fill:#09171e"/>
                        <path data-name="패스 241" d="m78.981 61.173 3.616-.006.123-.123h-3.86z" transform="translate(-71.017 -54.381)" style="fill:#839196"/>
                        <path data-name="패스 242" d="M20.352 15.04v-.305l-.123.123v.182a5.163 5.163 0 1 1-5.166-5.166h.2l.12-.117h-.318a5.288 5.288 0 1 0 5.289 5.288z" transform="translate(-8.65 -8.073)" style="fill:url(#hr0p3zpb4h)"/>
                        <path data-name="패스 243" d="M19.885 14.912h-.265a4.788 4.788 0 0 0 .01 9.576h.122a4.8 4.8 0 0 0 4.717-4.464v-.132l-.062.056-.064.067a4.668 4.668 0 1 1-4.656-4.981h.314z" transform="translate(-13.275 -12.729)" style="fill:url(#9l9xr5smdi)"/>
                        <path data-name="패스 246" d="m78.981 61.176-.12-.129v.62l.12-.127z" transform="translate(-71.017 -54.384)" style="fill:#b0b8bd"/>
                        <path data-name="패스 247" d="m66.175 10.287.12.12v-.621l-.12.117z" transform="translate(-59.564 -8.103)" style="fill:url(#olvj4vztpf)"/>
                        <path data-name="패스 248" d="M15.393 12.925v5.467h1.737V17.9h-1.24v-4.975zm.182-2.487a5.223 5.223 0 1 0 5.285 5.222v-.237h-3.725v.484h3.23v.071a4.734 4.734 0 1 1-4.722-5.05h.249v-.488h-.194z" transform="translate(-9.228 -8.692)" style="fill:url(#ymtf2folrj)"/>
                        <path data-name="패스 249" d="M35.944 36.747a.749.749 0 1 0 .749-.747.748.748 0 0 0-.749.748" transform="translate(-32.27 -31.77)" style="fill:url(#q6nc3oe0tk)"/>
                        <g data-name="그룹 142">
                            <path data-name="패스 250" d="M36.829 36.133a.748.748 0 0 1 .454.159.745.745 0 1 0-1.048 1.04.734.734 0 0 1-.157-.451.75.75 0 0 1 .751-.749" transform="translate(-32.27 -31.77)" style="fill:#fff"/>
                            <path data-name="패스 251" d="M15.891 10.43h-.253a5.223 5.223 0 0 0-3.687 8.914c.031.032.064.061.1.093a5.188 5.188 0 0 1-1.441-3.6 5.289 5.289 0 0 1 5.285-5.4" transform="translate(-9.228 -8.682)" style="fill:#fff"/>
                            <path data-name="패스 252" d="M66.705 87.283a5.048 5.048 0 0 0 1.24.1v-.1z" transform="translate(-60.042 -78.071)" style="fill:#fff"/>
                            <path data-name="패스 253" d="M62.081 36.179v-.154h-.5v5.467a43.055 43.055 0 0 0 .156-5.313z" transform="translate(-55.418 -31.793)" style="fill:#fff"/>
                            <path data-name="패스 254" d="M83.236 61.737H79.51v.484h.135v-.35a19.116 19.116 0 0 0 3.591-.135" transform="translate(-71.603 -55.007)" style="fill:#fff"/>
                            <path data-name="패스 255" d="M26.508 66.735v.073a4.731 4.731 0 0 1-8.068 3.025 4.689 4.689 0 0 1-1.21-2.07 4.8 4.8 0 0 0 4.639 3.516 4.741 4.741 0 0 0 4.7-4.543z" transform="translate(-15.37 -59.519)" style="fill:#fff"/>
                        </g>
                    </g>
                </g>
            </g>
        </g>
        <rect data-name="사각형 131" width="154" height="3" rx="1.5" transform="translate(-.311 -.207)" style="fill:#989898"/>
        <rect data-name="사각형 132" width="154" height="2" rx="1" transform="translate(-.311 32.793)" style="fill:#989898"/>
    </g>
    <path data-name="패스 129" d="M84.645 283.254a11.1 11.1 0 0 1-1.26.574 11.213 11.213 0 0 1-.888 1.659 11.4 11.4 0 0 1-1.215 1.555l-.169-2.611a9.989 9.989 0 0 1-2.86.026l-.1 1.557a10.291 10.291 0 0 0-.568-.7c-.389-.45-.79-.865-1.165-1.286a10.584 10.584 0 0 1-1.277-.522c.034.066.068.133.1.2.452.815 1.012 1.531 1.475 2.258a7.393 7.393 0 0 1 1.028 2.231 5.957 5.957 0 0 1 .163 1.534l-.421 6.5c0 .259.982.47 2.193.47s2.193-.21 2.193-.47l-.429-6.627a13.116 13.116 0 0 0 2.289-3.445 12.382 12.382 0 0 0 .911-2.903z" transform="translate(67.786 -164.802)" style="fill:#876554"/>
    <path data-name="패스 130" d="M72.341 175.294c-5.008-10.76-14.27-9.861-19.284-1.243-.28.539-1.028 1.966-1.389 2.866a28.376 28.376 0 0 0-1.719 6.66c-2.083 15.091 6.595 23.155 14.669 21.075 11.163-2.876 11.929-20.322 7.723-29.358z" transform="translate(85.302 -85.225)" style="fill:#7db75f"/>
    <path d="M74.656 224.427a15.374 15.374 0 0 1-4.328 10.25 1.611 1.611 0 0 0-.015-.173 3.123 3.123 0 0 0-1.228-1.613 3.12 3.12 0 0 0-.709 1.9c0 .01 0 .02.006.03a3.444 3.444 0 0 0-1.669-.1 3.058 3.058 0 0 0 .878 1.866 12.5 12.5 0 0 1-2.962 1.026 11.948 11.948 0 0 1-5.289-.058c.154-2.986-.455-5.287-1.823-6.852a5.765 5.765 0 0 0-4.48-1.96 8.294 8.294 0 0 0-2.542.428 16.429 16.429 0 0 1-.784-3.922c-.845 13.47 7.3 20.534 14.918 18.572 7.757-1.999 10.492-11.035 10.027-19.394z" transform="translate(85.293 -124.393)" style="fill:#478640;opacity:.4"/>
    <g data-name="Tree">
        <path data-name="패스 131" d="m51.881 320.789-.246 6.75c0 .12.456.218 1.018.218s1.018-.1 1.018-.218l-.308-6.722a8.089 8.089 0 0 1-1.482-.028z" transform="translate(81.899 -195.872)" style="fill:#876554"/>
        <path data-name="패스 132" d="M43 247.536c-3.168-8.19-8.66-8.961-13.428-3.288a22.388 22.388 0 0 0-1.785 2.432 11.672 11.672 0 0 0-.918 1.618c-2.746 5.466-1.733 10.5.949 13.742 3.335 4.033 9.246 5.3 13.7 1.19a8.806 8.806 0 0 0 .973-1.077c4.073-5.06.585-14.405.509-14.617z" transform="translate(99.338 -142.645)" style="fill:#5b963c"/>
        <path data-name="Shadow" d="M44.286 285.158a6.645 6.645 0 0 1-2.347 3.372 9.923 9.923 0 0 1-4.395 2.151 3.624 3.624 0 0 0 .481-1.515 3.554 3.554 0 0 0-2.227.337 1.66 1.66 0 0 0-.35.352 1.743 1.743 0 0 0-.144-.212 3.519 3.519 0 0 0-2.068-.872 3.618 3.618 0 0 0 .17 1.863 10.677 10.677 0 0 1-5.524-3.21 10.018 10.018 0 0 1-2.568-5.555 12.728 12.728 0 0 0 2.568 9.263c3.422 4.327 9.487 5.685 14.055 1.276a7.356 7.356 0 0 0 2.349-7.25z" transform="translate(99.336 -170.15)" style="fill:#478640"/>
    </g>
    <g data-name="Tree">
        <g data-name="Tree">
            <path data-name="패스 135" d="M895.115 204.527c3.373 6.244 4.2 15.758.315 19.294-5.962 5.423-13.289 2.823-15.288.264-2.012-2.577-2.479-7.259-1.781-11.9l.581-2.864c1.366-5.314 4.229-9.971 8-10.526 2.593-.382 4.915 1.093 6.756 3.516z" transform="translate(-878.055 -103.43)" style="fill:#5b963c"/>
            <path data-name="Shadow" d="M895.5 234.974c-6.016 4.825-13.41 2.512-15.427.235a9.218 9.218 0 0 1-1.973-4.958c-.219 3.767.394 7.3 2.045 9.416 2 2.56 9.326 5.159 15.288-.264 2.064-1.877 2.8-5.442 2.527-9.307a7.482 7.482 0 0 1-2.46 4.878z" transform="translate(-878.052 -119.013)" style="fill:#478640"/>
            <path data-name="패스 136" d="M898.94 251.1a2.9 2.9 0 0 1-.309.141 3.494 3.494 0 0 1-.379.111 10.213 10.213 0 0 1-2.01 3.323l-.127-1.773a11.376 11.376 0 0 1-1.854.12l-.158 2.215a8.05 8.05 0 0 1-1.463-2.357 11.35 11.35 0 0 1-.543-.1 8.636 8.636 0 0 0 1.926 3.579l-.34 4.767c0 .179.676.323 1.51.323s1.511-.144 1.511-.323l-.359-5.018a10.95 10.95 0 0 0 2.595-5.008z" transform="translate(-885.025 -129.447)" style="fill:#876554"/>
        </g>
    </g>
</svg>
