<svg xmlns="http://www.w3.org/2000/svg" xmlns:xlink="http://www.w3.org/1999/xlink" width="97" height="18" viewBox="0 0 97 18">
    <defs>
        <path id="pso3xsxzha" d="M0 12.763L96.053 12.763 96.053 0 0 0z"/>
    </defs>
    <g fill="none" fill-rule="evenodd">
        <g>
            <g>
                <g>
                    <g>
                        <g>
                            <path d="M0 0L96 0 96 18 0 18z" transform="translate(-136 -72) translate(120 64) translate(16 8)"/>
                            <g transform="translate(-136 -72) translate(120 64) translate(16 8) translate(0 3)">
                                <path fill="#222" d="M60.271 7.188c0 .338.044.644.132.92.088.275.219.511.394.709.176.197.396.349.662.455.266.106.574.16.925.16h1.596l-.404.798H62.16c-.395 0-.764-.067-1.108-.202-.345-.135-.647-.332-.906-.592-.26-.26-.464-.579-.61-.957-.148-.38-.221-.81-.221-1.291 0-.47.072-.893.216-1.268.144-.376.342-.695.596-.958.253-.263.554-.465.901-.606.348-.14.725-.21 1.132-.21h1.821l-.404.797h-1.192c-.344 0-.648.055-.91.165-.264.11-.484.263-.663.46-.178.197-.313.433-.403.709-.091.275-.137.579-.137.91M66.534 6.417c-.438 0-.773.143-1.005.428-.231.285-.348.671-.348 1.16 0 .469.117.849.348 1.14.232.291.567.437 1.005.437.219 0 .413-.043.582-.127.17-.085.31-.199.423-.343.112-.144.198-.311.257-.502.06-.191.09-.393.09-.606 0-.488-.116-.874-.347-1.16-.232-.284-.567-.427-1.005-.427m0 3.935c-.351 0-.664-.057-.939-.17-.275-.112-.509-.272-.7-.478-.19-.207-.336-.454-.436-.742-.1-.288-.15-.607-.15-.958 0-.356.05-.679.15-.967.1-.288.245-.533.436-.737.191-.203.425-.362.7-.474.275-.113.588-.17.939-.17.35 0 .663.057.939.17.275.112.508.27.7.474.19.204.336.45.436.737.1.288.15.61.15.967s-.05.68-.15.968c-.1.287-.246.533-.437.736-.19.204-.424.362-.7.475-.275.112-.588.169-.938.169M70.487 10.23c-.701 0-1.052-.363-1.052-1.09V4.145h.855V9.14c0 .107.022.19.066.25.043.059.118.088.225.088h.526l-.385.752h-.235zM72.787 10.23c-.701 0-1.051-.363-1.051-1.09V4.145h.854V9.14c0 .107.022.19.066.25.044.059.119.088.225.088h.526l-.385.752h-.235zM75.735 6.427c-.4 0-.702.113-.906.338-.203.225-.314.529-.333.91h2.432c-.019-.381-.122-.685-.31-.91-.188-.225-.482-.338-.883-.338zm1.437 3.803H75.67c-.35 0-.655-.061-.915-.184-.26-.122-.476-.286-.648-.492-.172-.207-.3-.448-.385-.724-.084-.275-.126-.569-.126-.882 0-.313.042-.609.126-.887.085-.279.215-.521.39-.728.175-.207.398-.37.667-.493.269-.122.588-.183.957-.183.395 0 .725.061.991.183s.48.286.643.493c.163.207.279.449.348.728.068.278.103.574.103.887v.479h-3.296c.05.338.179.598.385.78.207.18.476.271.808.271h1.83l-.375.752zM81.547 10.23h-1.042c-.313 0-.602-.05-.868-.15-.267-.1-.495-.248-.686-.442-.19-.194-.34-.427-.45-.7-.11-.272-.165-.583-.165-.934 0-.344.056-.654.17-.93.112-.275.267-.51.464-.703.197-.195.427-.342.69-.442.263-.1.545-.15.845-.15h1.427l-.385.751h-.976c-.207 0-.393.036-.559.108-.166.072-.308.174-.427.305-.119.132-.211.288-.277.47-.066.181-.099.379-.099.591 0 .432.119.786.357 1.061.238.276.573.413 1.005.413h1.361l-.385.752zM84.749 10.23h-.864c-.45 0-.803-.129-1.056-.386-.254-.256-.38-.62-.38-1.089V4.436h.854V5.78h1.803l-.376.751h-1.427v2.254c0 .457.21.685.629.685h1.202l-.385.76z"/>
                                <path fill="#222" d="M85.754 10.23h.854V5.779h-.854v4.45zm0-5.315h.854v-.77h-.854v.77zM89.34 6.417c-.438 0-.773.143-1.004.428-.232.285-.348.671-.348 1.16 0 .469.116.849.348 1.14.231.291.566.437 1.004.437.22 0 .414-.043.583-.127.169-.085.31-.199.422-.343.113-.144.199-.311.258-.502.06-.191.09-.393.09-.606 0-.488-.117-.874-.348-1.16-.231-.284-.567-.427-1.005-.427m0 3.935c-.35 0-.663-.057-.938-.17-.276-.112-.51-.272-.7-.478-.191-.207-.337-.454-.437-.742-.1-.288-.15-.607-.15-.958 0-.356.05-.679.15-.967.1-.288.246-.533.437-.737.19-.203.424-.362.7-.474.275-.113.587-.17.938-.17.35 0 .663.057.94.17.275.112.508.27.699.474.19.204.336.45.436.737.1.288.15.61.15.967s-.05.68-.15.968c-.1.287-.246.533-.436.736-.191.204-.424.362-.7.475-.276.112-.588.169-.939.169M94.551 5.779c.432 0 .789.13 1.07.39.282.26.426.643.432 1.15v2.91H95.2V7.29c-.013-.275-.081-.465-.207-.572-.125-.106-.288-.166-.488-.179h-1.417v3.69h-.846V5.78h2.31z"/>
                                <g fill="#222">
                                    <path d="M2.305.148L0 .148 0 10.125 7.08 10.125 7.08 8.182 2.305 8.182zM12.151 6.322h1.877v1.744c-.346.134-1.02.264-1.663.264-2.074 0-2.766-1.054-2.766-3.194 0-2.04.658-3.244 2.733-3.244 1.153 0 1.81.362 2.354 1.056l1.433-1.32C15.246.378 13.715 0 12.28 0 9.054 0 7.36 1.76 7.36 5.12c0 3.343 1.53 5.153 4.906 5.153 1.548 0 3.062-.395 3.886-.972v-4.84h-4v1.86z"/>
                                </g>
                                <path fill="#222" d="M27.105 9.099c.503 0 .962-.089 1.378-.262.415-.174.775-.427 1.078-.755.303-.328.535-.73.7-1.208.165-.477.246-1.024.246-1.64 0-.625-.081-1.18-.245-1.662-.166-.482-.396-.888-.693-1.216-.297-.329-.657-.579-1.08-.748-.42-.17-.881-.253-1.384-.253-.513 0-.978.088-1.393.261-.415.174-.772.425-1.07.755-.298.328-.529.733-.693 1.215-.164.485-.246 1.032-.246 1.648 0 .616.082 1.165.246 1.648.164.483.398.887.702 1.217.301.327.661.577 1.076.746.416.168.876.254 1.378.254m4.974-3.865c0 .77-.112 1.472-.333 2.11-.22.636-.544 1.185-.97 1.647-.425.461-.946.82-1.561 1.07-.617.25-1.32.377-2.11.377-.8 0-1.509-.126-2.125-.377-.615-.25-1.134-.606-1.556-1.064-.419-.455-.74-1.002-.96-1.638-.221-.637-.332-1.345-.332-2.125s.11-1.491.332-2.132c.22-.642.541-1.193.96-1.656.422-.461.94-.818 1.556-1.07C25.596.126 26.304 0 27.105 0c.8 0 1.508.127 2.125.376.615.252 1.133.609 1.554 1.07.421.463.742 1.014.962 1.656.221.64.333 1.352.333 2.132M34.91 8.976h1.278c.339 0 .642-.064.907-.194.268-.126.496-.302.686-.522.19-.221.334-.48.431-.778.098-.298.147-.61.147-.939 0-.329-.046-.64-.14-.931-.091-.293-.23-.548-.415-.762-.185-.216-.411-.388-.685-.516-.271-.13-.582-.193-.93-.193H34.91v4.835zm0-8.746v2.68h1.386c.502 0 .968.084 1.4.254.432.17.802.413 1.11.73.307.32.548.701.723 1.148.175.447.263.947.263 1.501 0 .575-.091 1.088-.271 1.54-.18.452-.426.833-.74 1.146-.312.314-.683.554-1.108.724-.426.169-.885.254-1.377.254h-2.803V.23h1.417zM41.47 2.91v7.513c0 .338-.07.608-.214.807-.144.201-.364.302-.662.302H40.04l-.631 1.231h1.325c.308 0 .593-.055.854-.163.262-.107.488-.261.678-.462.189-.199.338-.443.446-.73.108-.287.162-.615.162-.985V2.91H41.47zM47.742 3.972c-.657 0-1.153.185-1.487.554-.332.369-.515.868-.546 1.493h3.988c-.033-.625-.201-1.124-.508-1.493-.309-.369-.79-.554-1.447-.554zm2.355 6.234h-2.464c-.574 0-1.075-.1-1.5-.3-.427-.2-.78-.469-1.062-.807-.284-.34-.494-.733-.632-1.186-.138-.452-.207-.934-.207-1.448 0-.512.069-.997.207-1.454.138-.456.351-.854.639-1.193.286-.339.652-.609 1.093-.808.442-.2.966-.3 1.57-.3.647 0 1.188.1 1.625.3.436.199.786.47 1.053.808.268.34.458.737.571 1.193.113.457.17.942.17 1.454v.786h-5.404c.082.555.292.98.631 1.278.338.297.779.447 1.324.447h3.002l-.616 1.23zM56.124 10.205h-1.415c-.739 0-1.316-.209-1.732-.63-.417-.42-.625-1.016-.625-1.785V.708h1.401V2.91h2.957l-.617 1.231h-2.34v3.694c0 .75.344 1.124 1.032 1.124h1.97l-.631 1.246zM44.445.241L43.057.241 41.469 2.173 42.856 2.173z"/>
                            </g>
                        </g>
                    </g>
                </g>
            </g>
        </g>
    </g>
</svg>
