<?xml version="1.0" encoding="utf-8"?>
<!-- Generator: Adobe Illustrator 16.0.0, SVG Export Plug-In . SVG Version: 6.00 Build 0)  -->
<!DOCTYPE svg PUBLIC "-//W3C//DTD SVG 1.1//EN" "http://www.w3.org/Graphics/SVG/1.1/DTD/svg11.dtd">
<svg version="1.1" id="Layer_1" xmlns="http://www.w3.org/2000/svg" xmlns:xlink="http://www.w3.org/1999/xlink" x="0px" y="0px"
	 width="432px" height="432px" viewBox="0 0 432 432" enable-background="new 0 0 432 432" xml:space="preserve">
<rect y="1" fill="#F4F4F4" width="432" height="432"/>
<g>
	<path fill="#AAAAAA" d="M122.382,200.99h6.585v27.408h13.348v5.518h-19.934V200.99z"/>
	<path fill="#AAAAAA" d="M144.188,217.587c0-10.857,7.03-17.22,15.795-17.22c4.761,0,8.054,2.047,10.189,4.227l-3.515,4.182
		c-1.602-1.557-3.471-2.758-6.452-2.758c-5.473,0-9.299,4.271-9.299,11.346c0,7.163,3.292,11.479,9.744,11.479
		c1.602,0,3.204-0.445,4.138-1.246v-6.496h-5.829v-5.384h11.702v14.861c-2.225,2.18-6.096,3.96-10.679,3.96
		C150.995,234.539,144.188,228.576,144.188,217.587z"/>
	<path fill="#AAAAAA" d="M177.206,200.99h20.201v5.473h-13.615v7.608h11.568v5.518h-11.568v8.81h14.104v5.518h-20.69V200.99z"/>
	<path fill="#AAAAAA" d="M203.149,230.268c0-2.402,1.735-4.271,4.049-4.271c2.358,0,4.094,1.869,4.094,4.271
		s-1.735,4.271-4.094,4.271C204.884,234.539,203.149,232.67,203.149,230.268z"/>
	<path fill="#AAAAAA" d="M216.321,217.587c0-10.857,6.985-17.22,15.306-17.22c4.183,0,7.52,2.002,9.655,4.227l-3.47,4.182
		c-1.646-1.602-3.56-2.758-6.052-2.758c-4.983,0-8.721,4.271-8.721,11.346c0,7.163,3.382,11.479,8.587,11.479
		c2.804,0,5.028-1.335,6.808-3.248l3.471,4.094c-2.714,3.158-6.229,4.85-10.5,4.85C223.084,234.539,216.321,228.576,216.321,217.587
		z"/>
	<path fill="#AAAAAA" d="M243.288,217.319c0-10.723,6.007-16.952,14.729-16.952c8.721,0,14.728,6.273,14.728,16.952
		s-6.007,17.22-14.728,17.22C249.295,234.539,243.288,227.998,243.288,217.319z M266.025,217.319c0-7.074-3.115-11.301-8.009-11.301
		c-4.895,0-8.01,4.227-8.01,11.301c0,7.03,3.115,11.524,8.01,11.524C262.91,228.844,266.025,224.35,266.025,217.319z"/>
	<path fill="#AAAAAA" d="M278.665,200.99h7.297l5.606,15.395c0.712,2.046,1.335,4.227,2.003,6.363h0.222
		c0.712-2.136,1.291-4.316,2.003-6.363l5.473-15.395h7.297v32.926h-6.007v-13.749c0-3.114,0.489-7.697,0.801-10.812h-0.178
		l-2.67,7.742l-5.072,13.838h-3.782l-5.116-13.838l-2.625-7.742h-0.179c0.312,3.115,0.846,7.698,0.846,10.812v13.749h-5.918V200.99z
		"/>
</g>
</svg>
