<svg width="66" height="65" viewBox="0 0 66 65" fill="none" xmlns="http://www.w3.org/2000/svg">
<path fill-rule="evenodd" clip-rule="evenodd" d="M33.1857 0.608377C33.9037 0.608377 34.4857 1.19041 34.4857 1.90838V5.90838C34.4857 6.62635 33.9037 7.20838 33.1857 7.20838C32.4678 7.20838 31.8857 6.62635 31.8857 5.90838V1.90838C31.8857 1.19041 32.4678 0.608377 33.1857 0.608377Z" fill="black" style="fill:black;fill:black;fill-opacity:1;"/>
<path fill-rule="evenodd" clip-rule="evenodd" d="M10.3114 8.59958C10.8191 8.09189 11.6422 8.09189 12.1499 8.59958L14.9783 11.428C15.486 11.9357 15.486 12.7588 14.9783 13.2665C14.4706 13.7742 13.6475 13.7742 13.1399 13.2665L10.3114 10.4381C9.80374 9.93037 9.80374 9.10726 10.3114 8.59958Z" fill="black" style="fill:black;fill:black;fill-opacity:1;"/>
<path fill-rule="evenodd" clip-rule="evenodd" d="M51.1444 13.524C50.6367 13.0163 50.6367 12.1932 51.1444 11.6855L53.9729 8.85709C54.4805 8.3494 55.3037 8.3494 55.8113 8.85709C56.319 9.36477 56.319 10.1879 55.8113 10.6956L52.9829 13.524C52.4752 14.0317 51.6521 14.0317 51.1444 13.524Z" fill="black" style="fill:black;fill:black;fill-opacity:1;"/>
<path fill-rule="evenodd" clip-rule="evenodd" d="M0.942383 29.5325C0.942383 28.8145 1.52441 28.2325 2.24238 28.2325H6.24238C6.96035 28.2325 7.54238 28.8145 7.54238 29.5325C7.54238 30.2505 6.96035 30.8325 6.24238 30.8325H2.24238C1.52441 30.8325 0.942383 30.2505 0.942383 29.5325Z" fill="black" style="fill:black;fill:black;fill-opacity:1;"/>
<path fill-rule="evenodd" clip-rule="evenodd" d="M58.459 29.5325C58.459 28.8145 59.041 28.2325 59.759 28.2325H63.759C64.477 28.2325 65.059 28.8145 65.059 29.5325C65.059 30.2505 64.477 30.8325 63.759 30.8325H59.759C59.041 30.8325 58.459 30.2505 58.459 29.5325Z" fill="black" style="fill:black;fill:black;fill-opacity:1;"/>
<path fill-rule="evenodd" clip-rule="evenodd" d="M42.409 47.2398L41.1539 47.9984V49.8122H24.8658V48.008L23.6083 47.2498C23.5876 47.2373 23.5669 47.2248 23.5462 47.2122H42.4545C42.4394 47.2214 42.4242 47.2306 42.409 47.2398Z" fill="black" style="fill:black;fill:black;fill-opacity:1;"/>
<path fill-rule="evenodd" clip-rule="evenodd" d="M42.5641 25.3486C43.0718 25.8563 43.0718 26.6794 42.5641 27.1871L31.4581 38.2931C31.2142 38.5369 30.8836 38.6739 30.5388 38.6739C30.194 38.6739 29.8633 38.5369 29.6195 38.2931L23.4364 32.1091C22.9287 31.6014 22.9288 30.7783 23.4365 30.2706C23.9442 29.763 24.7673 29.763 25.275 30.2708L30.5389 35.5353L40.7256 25.3486C41.2333 24.8409 42.0564 24.8409 42.5641 25.3486Z" fill="#FD312E" style="fill:#FD312E;fill:color(display-p3 0.9922 0.1922 0.1804);fill-opacity:1;"/>
<path fill-rule="evenodd" clip-rule="evenodd" d="M41.1539 47.9984L42.409 47.2398C47.6948 44.045 51.2189 38.2504 51.2189 31.6352C51.2189 21.5734 43.0622 13.4167 33.0004 13.4167C22.9386 13.4167 14.7818 21.5734 14.7818 31.6352C14.7818 38.2573 18.3134 44.0571 23.6083 47.2498L24.8658 48.008V55.4319C24.8658 58.69 27.507 61.3312 30.765 61.3312H35.2546C38.5127 61.3312 41.1539 58.69 41.1539 55.4319L41.1539 47.9984ZM43.7539 49.4649V55.4319C43.7539 60.126 39.9487 63.9312 35.2546 63.9312H30.765C26.071 63.9312 22.2658 60.126 22.2658 55.4319V49.4763C16.223 45.8327 12.1818 39.2059 12.1818 31.6352C12.1818 20.1374 21.5026 10.8167 33.0004 10.8167C44.4982 10.8167 53.8189 20.1374 53.8189 31.6352C53.8189 39.198 49.7863 45.8189 43.7539 49.4649Z" fill="black" style="fill:black;fill:black;fill-opacity:1;"/>
</svg>
