<svg width="64" height="65" viewBox="0 0 64 65" fill="none" xmlns="http://www.w3.org/2000/svg">
<path fill-rule="evenodd" clip-rule="evenodd" d="M30.7002 54.1849V29.7759H33.3002V54.1849H30.7002Z" fill="#FD312E" style="fill:#FD312E;fill:color(display-p3 0.9922 0.1922 0.1804);fill-opacity:1;"/>
<path fill-rule="evenodd" clip-rule="evenodd" d="M17.4867 6.59156C15.4432 6.38729 13.8877 8.0711 13.8877 9.94918V15.8512H16.4877V9.94918C16.4877 9.43102 16.8872 9.14464 17.228 9.17871C20.8902 9.54481 24.0106 11.2273 26.3082 13.1597C27.3736 14.0557 28.2464 14.9928 28.9003 15.8512H35.0999C35.7538 14.9928 36.6266 14.0557 37.692 13.1597C39.9896 11.2273 43.11 9.54481 46.7722 9.17871C47.113 9.14464 47.5125 9.43102 47.5125 9.94918V15.8512H50.1125V9.94918C50.1125 8.0711 48.557 6.38729 46.5135 6.59156C42.2105 7.02172 38.6135 8.98738 36.0186 11.1698C34.7187 12.263 33.6521 13.4254 32.8581 14.5077C32.5333 14.9506 32.2436 15.3942 32.0001 15.8263C31.7566 15.3942 31.4669 14.9506 31.1421 14.5077C30.3481 13.4254 29.2815 12.263 27.9816 11.1698C25.3867 8.98738 21.7897 7.02172 17.4867 6.59156Z" fill="#FD312E" style="fill:#FD312E;fill:color(display-p3 0.9922 0.1922 0.1804);fill-opacity:1;"/>
<path fill-rule="evenodd" clip-rule="evenodd" d="M11.0295 30.2866V53.4851C11.0295 53.8717 11.3429 54.1851 11.7295 54.1851H52.2705C52.6571 54.1851 52.9705 53.8717 52.9705 53.4851V30.2866H55.5705V53.4851C55.5705 55.3076 54.093 56.7851 52.2705 56.7851H11.7295C9.90695 56.7851 8.42949 55.3076 8.42949 53.4851V30.2866H11.0295Z" fill="black" style="fill:black;fill:black;fill-opacity:1;"/>
<path fill-rule="evenodd" clip-rule="evenodd" d="M33.3002 27.686V18.4507H30.7002V27.686H33.3002Z" fill="#FD312E" style="fill:#FD312E;fill:color(display-p3 0.9922 0.1922 0.1804);fill-opacity:1;"/>
<path fill-rule="evenodd" clip-rule="evenodd" d="M58.4 18.4511L5.6 18.4511L5.6 27.6864L58.4 27.6864V18.4511ZM5.6 15.8511C4.16406 15.8511 3 17.0151 3 18.4511V27.6864C3 29.1224 4.16406 30.2864 5.6 30.2864H58.4C59.8359 30.2864 61 29.1224 61 27.6864V18.4511C61 17.0151 59.8359 15.8511 58.4 15.8511H5.6Z" fill="black" style="fill:black;fill:black;fill-opacity:1;"/>
</svg>
