<svg width="64" height="65" viewBox="0 0 64 65" fill="none" xmlns="http://www.w3.org/2000/svg">
<path fill-rule="evenodd" clip-rule="evenodd" d="M11.2336 28.5723C11.5854 28.5102 11.9475 28.4778 12.3172 28.4778H13.836C14.0687 18.6458 22.1119 10.747 31.9999 10.747C41.891 10.747 49.9355 18.6432 50.1644 28.4778H51.6828C52.0526 28.4778 52.4148 28.5103 52.7668 28.5724C52.5871 17.2565 43.3574 8.14697 31.9999 8.14697C20.6442 8.14697 11.4172 17.2604 11.2336 28.5723Z" fill="black" style="fill:black;fill:black;fill-opacity:1;"/>
<path fill-rule="evenodd" clip-rule="evenodd" d="M49.6424 45.3775C49.2921 50.8667 44.7289 55.2105 39.1512 55.2105H32.934C32.216 55.2105 31.634 55.7925 31.634 56.5105C31.634 57.2285 32.216 57.8105 32.934 57.8105H39.1512C46.1738 57.8105 51.907 52.2901 52.2479 45.3521C52.0619 45.3689 51.8735 45.3775 51.6831 45.3775H49.6424Z" fill="#FD312E" style="fill:#FD312E;fill:color(display-p3 0.9922 0.1922 0.1804);fill-opacity:1;"/>
<path fill-rule="evenodd" clip-rule="evenodd" d="M6.12402 34.6711C6.12402 31.2507 8.89676 28.4778 12.3172 28.4778H15.3991C17.0007 28.4778 18.2991 29.7762 18.2991 31.3778V42.4775C18.2991 44.0791 17.0007 45.3775 15.3991 45.3775H12.3173C8.89684 45.3775 6.12402 42.6047 6.12402 39.1842V34.6711ZM12.3173 31.0778C10.3328 31.0778 8.72402 32.6866 8.72402 34.6711V39.1842C8.72402 41.1687 10.3328 42.7775 12.3173 42.7775H15.3991C15.5648 42.7775 15.6991 42.6432 15.6991 42.4775V31.3778C15.6991 31.2121 15.5648 31.0778 15.3991 31.0778H12.3173ZM45.701 31.3778C45.701 29.7762 46.9994 28.4778 48.6011 28.4778H51.6828C55.1032 28.4778 57.8761 31.2507 57.8761 34.6711V39.1842C57.8761 42.6047 55.1035 45.3775 51.6831 45.3775L48.6011 45.3775C46.9994 45.3775 45.701 44.0791 45.701 42.4775V31.3778ZM48.6011 31.0778C48.4354 31.0778 48.301 31.2122 48.301 31.3778V42.4775C48.301 42.6432 48.4354 42.7775 48.6011 42.7775H51.6829C53.6674 42.7775 55.2761 41.1687 55.2761 39.1842V34.6711C55.2761 32.6866 53.6674 31.0778 51.6829 31.0778H48.6011Z" fill="black" style="fill:black;fill:black;fill-opacity:1;"/>
</svg>
