<svg width="64" height="64" viewBox="0 0 64 64" fill="none" xmlns="http://www.w3.org/2000/svg">
    <path d="M32.023 23a1.24 1.24 0 0 0-1.178.824l-2.54 8.371H20.25a1.3 1.3 0 0 0-.868 2.22l6.692 4.945-2.726 8.054A1.32 1.32 0 0 0 24.587 49c.22-.004.435-.07.62-.19l6.816-5.2 6.755 5.2c.185.12.4.186.62.19a1.281 1.281 0 0 0 1.178-1.649L37.85 39.3l6.756-4.883a1.288 1.288 0 0 0-.868-2.22H35.68L33.2 23.824A1.24 1.24 0 0 0 32.023 23z" stroke="#FD312E" stroke-width="2.5"/>
    <path d="M32 62c13.807 0 25-11.193 25-25S45.807 12 32 12 7 23.193 7 37s11.193 25 25 25z" stroke="#000" stroke-width="2.5"/>
    <path d="M18.443 16 12.005 6h14.4l3.6 5.972M45.562 16 52 6H37.6L34 11.972" stroke="#000" stroke-width="2.5"/>
</svg>
