<svg width="64" height="65" viewBox="0 0 64 65" fill="none" xmlns="http://www.w3.org/2000/svg">
<path fill-rule="evenodd" clip-rule="evenodd" d="M21.8645 25.6591C20.9833 25.6591 20.2689 26.3734 20.2689 27.2547C20.2689 28.1359 20.9833 28.8502 21.8645 28.8502C22.7457 28.8502 23.4601 28.1359 23.4601 27.2547C23.4601 26.3734 22.7457 25.6591 21.8645 25.6591ZM17.6689 27.2547C17.6689 24.9375 19.5474 23.0591 21.8645 23.0591C24.1817 23.0591 26.0601 24.9375 26.0601 27.2547C26.0601 29.5718 24.1817 31.4502 21.8645 31.4502C19.5474 31.4502 17.6689 29.5718 17.6689 27.2547ZM35.3115 24.4615C35.8192 24.9692 35.8192 25.7923 35.3115 26.3L20.9221 40.6893C20.4145 41.197 19.5913 41.197 19.0837 40.6893C18.576 40.1816 18.576 39.3585 19.0837 38.8508L33.473 24.4615C33.9807 23.9538 34.8038 23.9538 35.3115 24.4615ZM30.9143 37.8953C30.9143 37.016 31.6279 36.3017 32.5099 36.3017C33.3919 36.3017 34.1055 37.016 34.1055 37.8953C34.1055 38.7746 33.3919 39.4889 32.5099 39.4889C31.6279 39.4889 30.9143 38.7746 30.9143 37.8953ZM32.5099 33.7017C30.1936 33.7017 28.3143 35.5784 28.3143 37.8953C28.3143 40.2122 30.1936 42.0889 32.5099 42.0889C34.8262 42.0889 36.7055 40.2122 36.7055 37.8953C36.7055 35.5784 34.8262 33.7017 32.5099 33.7017Z" fill="#FD312E" style="fill:#FD312E;fill:color(display-p3 0.9922 0.1922 0.1804);fill-opacity:1;"/>
<path fill-rule="evenodd" clip-rule="evenodd" d="M46 14.8745V17.7058C46 18.4238 46.582 19.0058 47.3 19.0058C48.018 19.0058 48.6 18.4238 48.6 17.7058V14.8745H46ZM48.4483 50.2745C48.5451 50.0926 48.6 49.885 48.6 49.6646V46.7593C48.6 46.0413 48.018 45.4593 47.3 45.4593C46.582 45.4593 46 46.0413 46 46.7593V49.6646C46 49.885 46.0549 50.0926 46.1517 50.2745H48.4483ZM48.6 23.5165C48.6 22.7985 48.018 22.2165 47.3 22.2165C46.582 22.2165 46 22.7985 46 23.5165V29.3272C46 30.0452 46.582 30.6272 47.3 30.6272C48.018 30.6272 48.6 30.0452 48.6 29.3272V23.5165ZM48.6 35.1379C48.6 34.4199 48.018 33.8379 47.3 33.8379C46.582 33.8379 46 34.4199 46 35.1379V40.9486C46 41.6665 46.582 42.2486 47.3 42.2486C48.018 42.2486 48.6 41.6665 48.6 40.9486V35.1379Z" fill="black" style="fill:black;fill:black;fill-opacity:1;"/>
<path fill-rule="evenodd" clip-rule="evenodd" d="M2 15.1749C2 13.5733 3.27205 12.2749 4.84119 12.2749H59.1588C60.728 12.2749 62 13.5733 62 15.1749V29.2012C62 29.941 61.371 30.5247 60.6333 30.4696C60.5501 30.4633 60.4657 30.4601 60.3804 30.4601C58.5545 30.4601 57.1588 31.9015 57.1588 33.5752C57.1588 35.249 58.5545 36.6903 60.3804 36.6903C60.4657 36.6903 60.5501 36.6872 60.6333 36.6809C61.3711 36.6258 62 37.2095 62 37.9492V49.9749C62 51.5765 60.728 52.8749 59.1588 52.8749H4.84119C3.27204 52.8749 2 51.5765 2 49.9749V37.9492C2 37.2093 2.62907 36.6256 3.36687 36.6809C3.45028 36.6871 3.5348 36.6903 3.62032 36.6903C5.44615 36.6903 6.84187 35.249 6.84187 33.5752C6.84187 31.9015 5.44615 30.4601 3.62032 30.4601C3.5348 30.4601 3.45028 30.4633 3.36687 30.4696C2.62907 30.5249 2 29.9412 2 29.2013V15.1749ZM4.84119 14.8749C4.67886 14.8749 4.54727 15.0092 4.54727 15.1749V27.9341C7.26065 28.3709 9.38914 30.6934 9.38914 33.5752C9.38914 36.4571 7.26065 38.7796 4.54727 39.2164V49.9749C4.54727 50.1406 4.67886 50.2749 4.84119 50.2749H59.1588C59.3211 50.2749 59.4527 50.1406 59.4527 49.9749V39.2163C56.7397 38.7792 54.6115 36.4568 54.6115 33.5752C54.6115 30.6936 56.7397 28.3713 59.4527 27.9342V15.1749C59.4527 15.0092 59.3211 14.8749 59.1588 14.8749H4.84119Z" fill="black" style="fill:black;fill:black;fill-opacity:1;"/>
</svg>
