<svg width="64" height="65" viewBox="0 0 64 65" fill="none" xmlns="http://www.w3.org/2000/svg">
<path d="M27.751 28.1665H30.3612L33.4072 38.4319L34.0308 40.5425H33.9546L34.4384 38.4319L37.4844 28.1665H40.079L35.1142 44.2841H32.7158L27.751 28.1665Z" fill="#FD312E" style="fill:#FD312E;fill:color(display-p3 0.9922 0.1922 0.1804);fill-opacity:1;"/>
<path d="M50.6599 41.6713V44.2841H41.5938V28.1665H50.444V30.7663H44.189V34.8582H50.2281V37.4144H44.189V41.6713H50.6599Z" fill="#FD312E" style="fill:#FD312E;fill:color(display-p3 0.9922 0.1922 0.1804);fill-opacity:1;"/>
<path d="M23.6221 28.1665H26.2221V44.816H23.6221V28.1665Z" fill="#FD312E" style="fill:#FD312E;fill:color(display-p3 0.9922 0.1922 0.1804);fill-opacity:1;"/>
<path d="M21.9982 42.2214V44.816H13.3398V28.1665H15.9375V42.2214H21.9982Z" fill="#FD312E" style="fill:#FD312E;fill:color(display-p3 0.9922 0.1922 0.1804);fill-opacity:1;"/>
<path fill-rule="evenodd" clip-rule="evenodd" d="M43.2656 9.2665C43.8239 8.81507 43.9105 7.99653 43.4591 7.43823C43.0077 6.87993 42.1892 6.7933 41.6309 7.24472L32.0001 15.0319L22.3694 7.24472C21.8111 6.7933 20.9926 6.87993 20.5411 7.43823C20.0897 7.99653 20.1763 8.81507 20.7346 9.2665L28.4324 15.4907H35.5679L43.2656 9.2665Z" fill="black" style="fill:black;fill:black;fill-opacity:1;"/>
<path fill-rule="evenodd" clip-rule="evenodd" d="M59.4 18.0907H4.6L4.6 54.8907L59.4 54.8907V18.0907ZM4.6 15.4907C3.16406 15.4907 2 16.6548 2 18.0907V54.8907C2 56.3266 3.16406 57.4907 4.6 57.4907H59.4C60.8359 57.4907 62 56.3266 62 54.8907V18.0907C62 16.6548 60.8359 15.4907 59.4 15.4907H4.6Z" fill="black" style="fill:black;fill:black;fill-opacity:1;"/>
</svg>
