<svg width="64" height="65" viewBox="0 0 64 65" fill="none" xmlns="http://www.w3.org/2000/svg">
    <path d="M59.2 7H47.468a2.133 2.133 0 0 0-2.133 2.133v44.8c0 1.178.955 2.134 2.133 2.134h11.734a2.133 2.133 0 0 0 2.133-2.134v-44.8A2.133 2.133 0 0 0 59.201 7z" stroke="#FD312E" stroke-width="2.5"/>
    <path d="M37.867 7H4.8a2.133 2.133 0 0 0-2.133 2.133v44.8c0 1.178.955 2.134 2.133 2.134h33.067A2.133 2.133 0 0 0 40 53.933v-44.8A2.133 2.133 0 0 0 37.867 7zM2.667 20.259H40" stroke="#000" stroke-width="2.5"/>
    <path d="M21.334 47.533c5.596 0 10.133-4.537 10.133-10.133 0-5.597-4.537-10.133-10.133-10.133-5.597 0-10.134 4.536-10.134 10.133 0 5.596 4.537 10.133 10.134 10.133z" stroke="#000" stroke-width="2.5"/>
</svg>
