<svg width="32" height="32" viewBox="0 0 32 32" fill="none" xmlns="http://www.w3.org/2000/svg">
<path fill-rule="evenodd" clip-rule="evenodd" d="M3.95366 12.2958C5.38404 7.13653 10.2282 3.3229 16.0034 3.3229C22.0874 3.3229 27.1382 7.55531 28.2529 13.1347C28.326 13.5004 28.6818 13.7377 29.0475 13.6646C29.4133 13.5915 29.6506 13.2358 29.5775 12.87C28.3343 6.64786 22.7198 1.97217 16.0034 1.97217C9.65156 1.97217 4.28521 6.15408 2.66984 11.871L1.6998 10.2337C1.50967 9.91285 1.09202 9.80097 0.76694 9.98386C0.441863 10.1668 0.332463 10.5752 0.522588 10.8961L2.34659 13.9747C2.53672 14.2956 2.95437 14.4075 3.27945 14.2246L6.43871 12.4471C6.76379 12.2642 6.87319 11.8558 6.68306 11.5349C6.49294 11.214 6.07528 11.1021 5.75021 11.285L3.95366 12.2958Z" fill="black" style="fill:black;fill:black;fill-opacity:1;"/>
<path fill-rule="evenodd" clip-rule="evenodd" d="M28.0462 19.7044C26.6159 24.8637 21.7717 28.6773 15.9965 28.6773C9.91249 28.6773 4.86171 24.4449 3.74696 18.8655C3.67388 18.4998 3.31813 18.2625 2.95237 18.3356C2.5866 18.4087 2.34933 18.7644 2.42241 19.1302C3.6656 25.3523 9.28013 30.028 15.9965 30.028C22.3483 30.028 27.7147 25.8461 29.3301 20.1292L30.3001 21.7664C30.4902 22.0873 30.9079 22.1992 31.233 22.0163C31.558 21.8334 31.6674 21.425 31.4773 21.1041L29.6533 18.0255C29.4632 17.7046 29.0455 17.5927 28.7205 17.7756L25.5612 19.5531C25.2361 19.736 25.1267 20.1444 25.3168 20.4653C25.507 20.7862 25.9246 20.898 26.2497 20.7152L28.0462 19.7044Z" fill="black" style="fill:black;fill:black;fill-opacity:1;"/>
<path fill-rule="evenodd" clip-rule="evenodd" d="M14.2585 10.6494V9.50459H17.7413V10.6494H19.0413V9.35459C19.0413 8.71946 18.5264 8.20459 17.8913 8.20459H14.1085C13.4734 8.20459 12.9585 8.71946 12.9585 9.35459V10.6494H14.2585Z" fill="#FD312E" style="fill:#FD312E;fill:color(display-p3 0.9922 0.1922 0.1804);fill-opacity:1;"/>
<path fill-rule="evenodd" clip-rule="evenodd" d="M13.601 20.2701C13.601 19.9111 13.892 19.6201 14.251 19.6201H17.751C18.11 19.6201 18.401 19.9111 18.401 20.2701C18.401 20.6291 18.11 20.9201 17.751 20.9201H14.251C13.892 20.9201 13.601 20.6291 13.601 20.2701Z" fill="#FD312E" style="fill:#FD312E;fill:color(display-p3 0.9922 0.1922 0.1804);fill-opacity:1;"/>
<path fill-rule="evenodd" clip-rule="evenodd" d="M12.4924 11.9494V22.0199H19.5076V11.9494H12.4924ZM12.1924 10.6494C11.6401 10.6494 11.1924 11.0971 11.1924 11.6494V22.3199C11.1924 22.8722 11.6401 23.3199 12.1924 23.3199H19.8076C20.3599 23.3199 20.8076 22.8722 20.8076 22.3199V11.6494C20.8076 11.0971 20.3599 10.6494 19.8076 10.6494H12.1924Z" fill="#FD312E" style="fill:#FD312E;fill:color(display-p3 0.9922 0.1922 0.1804);fill-opacity:1;"/>
</svg>
