<svg width="64" height="65" viewBox="0 0 64 65" fill="none" xmlns="http://www.w3.org/2000/svg">
<path fill-rule="evenodd" clip-rule="evenodd" d="M50.3957 17.0688H41.0592V19.6688H50.3957V17.0688ZM52.9957 17.0688V19.6688H53.0045V17.0688H52.9957ZM13.5957 19.6688H23.4664V17.0688H13.5957V19.6688ZM38.4592 19.6651H26.0664V19.6688H38.4592V19.6651Z" fill="black" style="fill:black;fill:black;fill-opacity:1;"/>
<path fill-rule="evenodd" clip-rule="evenodd" d="M38.4592 19.6651H26.0664L26.0668 22.7186H38.4596L38.4592 19.6651ZM23.4668 17.0649V23.3186C23.4668 24.4232 24.3622 25.3186 25.4668 25.3186H39.0596C40.1641 25.3186 41.0596 24.4232 41.0596 23.3186V17.0649H23.4668Z" fill="#FD312E" style="fill:#FD312E;fill:color(display-p3 0.9922 0.1922 0.1804);fill-opacity:1;"/>
<path fill-rule="evenodd" clip-rule="evenodd" d="M32.2637 40.1644C34.115 40.1644 35.6637 38.6395 35.6637 36.6991C35.6637 36.6015 35.6175 36.273 35.3577 35.6677C35.1127 35.0968 34.7466 34.4373 34.292 33.7294C33.6652 32.7535 32.9323 31.781 32.2637 30.9506C31.5951 31.781 30.8621 32.7535 30.2354 33.7294C29.7807 34.4373 29.4147 35.0968 29.1696 35.6677C28.9098 36.273 28.8637 36.6015 28.8637 36.6991C28.8637 38.6395 30.4124 40.1644 32.2637 40.1644ZM32.2637 42.7644C35.5774 42.7644 38.2637 40.0489 38.2637 36.6991C38.2637 34.2783 35.1302 30.274 33.3921 28.2391C32.793 27.5376 31.7343 27.5376 31.1352 28.2391C29.3972 30.274 26.2637 34.2783 26.2637 36.6991C26.2637 40.0489 28.95 42.7644 32.2637 42.7644Z" fill="black" style="fill:black;fill:black;fill-opacity:1;"/>
<path fill-rule="evenodd" clip-rule="evenodd" d="M13.5961 10.1747V54.9747H50.3961V10.1747H13.5961ZM12.9961 7.57471C11.8915 7.57471 10.9961 8.47014 10.9961 9.57471V55.5747C10.9961 56.6793 11.8915 57.5747 12.9961 57.5747H50.9961C52.1007 57.5747 52.9961 56.6793 52.9961 55.5747V9.57471C52.9961 8.47014 52.1007 7.57471 50.9961 7.57471H12.9961Z" fill="black" style="fill:black;fill:black;fill-opacity:1;"/>
</svg>
