<svg width="32" height="32" viewBox="0 0 32 32" fill="none" xmlns="http://www.w3.org/2000/svg">
<g clip-path="url(#clip0_17303_84689)">
<circle cx="16" cy="16" r="16" fill="#F5E14C"/>
<path d="M10.05 24.9996C10.0207 25.0012 9.99148 24.9959 9.96464 24.9841C9.9378 24.9722 9.91412 24.9543 9.8955 24.9316C9.86386 24.8707 9.84583 24.8037 9.84263 24.7352C9.83944 24.6666 9.85116 24.5982 9.877 24.5346C9.9825 24.1236 10.4905 22.2616 10.744 21.3346C9.38954 20.7076 8.2088 19.7591 7.3045 18.5716C6.47064 17.4686 6.01332 16.1268 6 14.7441C6 12.6756 7.04 10.7306 8.9285 9.26813C10.972 7.75485 13.4575 6.95753 16 6.99963C18.5423 6.95764 21.0276 7.75496 23.071 9.26813C24.9595 10.7306 26 12.6756 26 14.7441C26 16.8126 24.96 18.7576 23.071 20.2206C21.0276 21.7339 18.5423 22.5312 16 22.4891C15.3789 22.4892 14.7587 22.4446 14.144 22.3556C12.8615 23.2105 11.5781 24.0642 10.294 24.9166C10.222 24.9664 10.1375 24.9952 10.05 24.9996ZM21.057 15.3071L22.4305 17.1431C22.4579 17.1779 22.4932 17.2055 22.5335 17.2238C22.5737 17.2421 22.6178 17.2504 22.662 17.2481C22.7982 17.2347 22.929 17.1882 23.0431 17.1127C23.1572 17.0371 23.251 16.9348 23.3165 16.8146C23.3457 16.7659 23.3601 16.7098 23.3579 16.6531C23.3558 16.5964 23.3372 16.5415 23.3045 16.4951L21.8455 14.6131L21.8875 14.5681C22.7125 13.6976 23.071 13.3346 23.226 13.1831C23.2527 13.1507 23.2687 13.1108 23.2719 13.0689C23.275 13.027 23.2651 12.9852 23.2435 12.9491C23.1875 12.824 23.1035 12.7135 22.998 12.626C22.8925 12.5385 22.7683 12.4765 22.635 12.4446C22.614 12.4439 22.5931 12.4473 22.5734 12.4546C22.5538 12.462 22.5358 12.4732 22.5205 12.4876C22.304 12.6981 20.7645 14.2081 20.7495 14.2231C20.7495 14.2196 20.7635 13.2731 20.7495 12.7396C20.744 12.5346 20.488 12.4426 20.2365 12.4426C20.0626 12.4323 19.8911 12.4876 19.756 12.5976C19.7331 12.6197 19.7151 12.6463 19.703 12.6758C19.691 12.7052 19.6852 12.7368 19.686 12.7686C19.6935 13.0601 19.683 15.1186 19.677 16.2266C19.677 16.5886 19.6735 16.8731 19.6735 16.9396C19.6735 17.1511 19.9505 17.2476 20.2075 17.2476C20.3753 17.2585 20.5411 17.2065 20.6725 17.1016C20.6947 17.0807 20.7124 17.0554 20.7246 17.0274C20.7367 16.9994 20.743 16.9692 20.743 16.9386V15.5541L21.057 15.3071ZM13.926 12.4441C13.8091 12.4324 13.6914 12.4553 13.5874 12.5099C13.4835 12.5644 13.3978 12.6483 13.341 12.7511C13.213 13.0261 12.9255 13.7956 12.621 14.6101L12.603 14.6601C12.3225 15.4101 12.003 16.2631 11.853 16.6101C11.8266 16.6668 11.8156 16.7294 11.8209 16.7917C11.8263 16.854 11.8479 16.9138 11.8835 16.9651C11.9471 17.0515 12.0299 17.1219 12.1253 17.1707C12.2208 17.2196 12.3263 17.2456 12.4335 17.2466C12.5127 17.252 12.5916 17.233 12.6596 17.1922C12.7277 17.1513 12.7816 17.0906 12.814 17.0181L13.022 16.3036H14.929L14.9265 16.3081C14.9175 16.3281 14.904 16.4361 15.117 16.9876C15.149 17.0684 15.2058 17.1369 15.2792 17.1834C15.3526 17.2298 15.4388 17.2518 15.5255 17.2461C15.6295 17.2458 15.7321 17.2217 15.8255 17.1757C15.9188 17.1297 16.0004 17.063 16.064 16.9806C16.1009 16.929 16.1242 16.8689 16.1316 16.8059C16.1391 16.7428 16.1304 16.6789 16.1065 16.6201C16.023 16.4041 15.8815 16.0296 15.7175 15.5951V15.5911L15.7125 15.5771C15.3 14.4996 14.7435 13.0261 14.612 12.7496C14.5314 12.6465 14.4267 12.5647 14.3071 12.5114C14.1875 12.4581 14.0566 12.435 13.926 12.4441ZM17.076 12.4411C16.9128 12.4356 16.7539 12.4943 16.6335 12.6046C16.5937 12.6447 16.5623 12.6924 16.5413 12.7449C16.5204 12.7974 16.5102 12.8536 16.5115 12.9101C16.5115 13.7981 16.5165 16.6601 16.5165 16.6601C16.4945 16.8162 16.5316 16.9749 16.6205 17.1051C16.6597 17.1475 16.7079 17.1806 16.7615 17.2021C16.8151 17.2235 16.8729 17.2328 16.9305 17.2291H19.023C19.273 17.2291 19.3895 16.9656 19.3895 16.7211C19.3895 16.4766 19.274 16.2081 19.0205 16.2081C18.5755 16.2081 17.793 16.2041 17.6405 16.2031H17.635C17.635 16.1686 17.6395 13.5091 17.638 12.9126C17.6339 12.844 17.6158 12.7768 17.5849 12.7154C17.5539 12.6539 17.5107 12.5995 17.458 12.5553C17.4052 12.5112 17.344 12.4783 17.278 12.4586C17.2121 12.439 17.1428 12.433 17.0745 12.4411H17.076ZM8.8705 12.2771C8.80545 12.2793 8.74154 12.2949 8.68273 12.3228C8.62392 12.3507 8.57145 12.3903 8.52858 12.4393C8.4857 12.4883 8.45332 12.5455 8.43344 12.6075C8.41356 12.6695 8.4066 12.7349 8.413 12.7996C8.40639 12.8647 8.41321 12.9303 8.43304 12.9926C8.45287 13.0549 8.48528 13.1124 8.52828 13.1617C8.57127 13.2109 8.62392 13.2508 8.68296 13.2788C8.742 13.3068 8.80618 13.3224 8.8715 13.3246H9.914V13.6616C9.914 14.4531 9.9185 16.3071 9.914 16.8186C9.914 17.0616 10.198 17.1891 10.4775 17.1891C10.6358 17.1976 10.7914 17.1458 10.913 17.0441C10.9397 17.0182 10.9609 16.9871 10.9751 16.9527C10.9894 16.9183 10.9965 16.8814 10.996 16.8441L11 13.4266H11.0035C11.3413 13.3721 11.6833 13.3477 12.0255 13.3536H12.0375C12.1055 13.3527 12.1727 13.3378 12.2347 13.3097C12.2967 13.2817 12.3522 13.2412 12.3979 13.1907C12.4435 13.1402 12.4782 13.0808 12.4998 13.0163C12.5214 12.9517 12.5295 12.8834 12.5235 12.8156C12.5295 12.7479 12.5214 12.6797 12.4998 12.6152C12.4783 12.5507 12.4436 12.4914 12.398 12.441C12.3524 12.3905 12.2969 12.35 12.235 12.322C12.173 12.294 12.106 12.279 12.038 12.2781L8.8705 12.2771ZM14.5705 15.3646L13.3615 15.3656L13.99 13.5861L14.57 15.3646H14.5705Z" fill="#3C1D1D"/>
</g>
<defs>
<clipPath id="clip0_17303_84689">
<rect width="32" height="32" fill="white"/>
</clipPath>
</defs>
</svg>
