<svg xmlns="http://www.w3.org/2000/svg" width="88" height="88" viewBox="0 0 88 88">
    <circle cx="44" cy="44" r="44" style="fill:#f4f4f4"/>
    <path transform="translate(14 14)" style="fill:none" d="M0 0h60v60H0z"/>
    <path data-name="패스 77854" d="M1.346 20.953a1.219 1.219 0 0 1 1.219-1.219h19.361a1.219 1.219 0 0 1 0 2.438H2.564a1.219 1.219 0 0 1-1.218-1.219z" style="fill-rule:evenodd;fill:#fd312e" transform="translate(13.654 14.26)"/>
    <path data-name="패스 77855" d="M1.346 30.878a1.219 1.219 0 0 1 1.219-1.219h13.329a1.219 1.219 0 0 1 0 2.438H2.564a1.219 1.219 0 0 1-1.218-1.219z" style="fill-rule:evenodd;fill:#fd312e" transform="translate(13.654 14.26)"/>
    <path data-name="패스 77856" d="M39.041 16.089v-2.438h6.166a2.719 2.719 0 0 1 2.554 1.786l3.225 8.824h-2.6l-2.919-7.988a.281.281 0 0 0-.264-.185z" style="fill-rule:evenodd" transform="translate(13.654 14.26)"/>
    <path data-name="패스 77857" d="M25.175 46.346a7.086 7.086 0 0 0 0-2.437h9.94a7.086 7.086 0 0 0 0 2.438z" style="fill-rule:evenodd" transform="translate(13.654 14.26)"/>
    <path data-name="패스 77858" d="M18.275 49.7a4.568 4.568 0 1 0-4.568-4.568 4.568 4.568 0 0 0 4.568 4.568zm23.74 0a4.568 4.568 0 1 0-4.568-4.568 4.568 4.568 0 0 0 4.567 4.568zm-23.74 2.438a7.006 7.006 0 1 0-7.006-7.006 7.006 7.006 0 0 0 7.006 7.002zm23.74 0a7.006 7.006 0 1 0-7.006-7.006 7.006 7.006 0 0 0 7.005 7.002z" style="fill-rule:evenodd" transform="translate(13.654 14.26)"/>
    <path data-name="패스 77859" d="M10.588 10.741a1.219 1.219 0 0 0 0 2.438h25.734a.281.281 0 0 1 .281.281v10.52a2.719 2.719 0 0 0 2.719 2.72h11.962a.281.281 0 0 1 .27.2l4.914 16.68a.281.281 0 0 1-.27.361h-7.29a6.717 6.717 0 0 1 0 2.438H56.2a2.719 2.719 0 0 0 2.608-3.487l-4.914-16.68a2.719 2.719 0 0 0-2.608-1.95H39.322a.281.281 0 0 1-.281-.281V13.46a2.719 2.719 0 0 0-2.719-2.719z" style="fill-rule:evenodd" transform="translate(13.654 14.26)"/>
</svg>
