<svg data-name="img_Heart line_24" xmlns="http://www.w3.org/2000/svg" width="24" height="24" viewBox="0 0 24 24">
    <path data-name="패스 48554" d="m11.312 21.2 1.088.958 1.088-.958q2.474-2.156 4.082-3.714a27.386 27.386 0 0 0 2.548-2.768 8.647 8.647 0 0 0 1.311-2.2 5.745 5.745 0 0 0 .371-2.024 4.563 4.563 0 0 0-1.423-3.415A4.868 4.868 0 0 0 16.853 5.7a5.366 5.366 0 0 0-2.449.587 5.647 5.647 0 0 0-1.56 1.167 6.417 6.417 0 0 0-.444.523 6.417 6.417 0 0 0-.444-.523A5.648 5.648 0 0 0 10.4 6.286 5.366 5.366 0 0 0 7.947 5.7a4.868 4.868 0 0 0-3.524 1.377A4.563 4.563 0 0 0 3 10.491a5.745 5.745 0 0 0 .371 2.024 8.646 8.646 0 0 0 1.311 2.2 27.387 27.387 0 0 0 2.548 2.772q1.608 1.558 4.082 3.713zM7.7 17" transform="translate(-.4 -1.93)" style="fill:none;stroke:#000;stroke-linecap:square;stroke-width:1.2px;fill-rule:evenodd"/>
</svg>
