<svg width="32" height="32" viewBox="0 0 32 32" fill="none" xmlns="http://www.w3.org/2000/svg">
    <path d="m15.045 25.132-.003-.002c-2.193-1.912-3.995-3.552-5.41-4.924h0l-.007-.006a35.757 35.757 0 0 1-3.33-3.614h0l-.004-.006a10.778 10.778 0 0 1-1.63-2.738 6.91 6.91 0 0 1-.444-2.427V11.4a5.334 5.334 0 0 1 1.666-3.991h0L5.89 7.4a5.74 5.74 0 0 1 4.157-1.624H10.068a6.405 6.405 0 0 1 2.921.7l.002.001c.7.355 1.334.83 1.872 1.401h0c.192.203.372.417.54.639l.598.789.598-.789a7.77 7.77 0 0 1 .54-.639h0a6.779 6.779 0 0 1 1.872-1.401l.002-.001a6.405 6.405 0 0 1 2.923-.7H21.957a5.741 5.741 0 0 1 4.156 1.622h0l.008.007a5.334 5.334 0 0 1 1.665 3.991v.016a6.911 6.911 0 0 1-.443 2.427 10.78 10.78 0 0 1-1.63 2.738h0l-.005.006a35.76 35.76 0 0 1-3.33 3.614h0l-.007.007c-1.415 1.372-3.218 3.013-5.413 4.925l-.003.002-.955.842-.955-.842z" stroke="#000" stroke-width="1.5" stroke-linecap="square"/>
</svg>
