<svg width="32" height="32" viewBox="0 0 32 32" fill="none" xmlns="http://www.w3.org/2000/svg">
    <path fill-rule="evenodd" clip-rule="evenodd" d="M14.55 25.695 16 26.973l1.451-1.278c2.2-1.917 4.014-3.567 5.442-4.952a36.519 36.519 0 0 0 3.4-3.69 11.531 11.531 0 0 0 1.748-2.939 7.66 7.66 0 0 0 .495-2.7 6.085 6.085 0 0 0-1.9-4.553 6.492 6.492 0 0 0-4.699-1.834 7.155 7.155 0 0 0-3.265.782 7.528 7.528 0 0 0-2.079 1.556c-.21.223-.407.456-.592.7a8.558 8.558 0 0 0-.592-.7 7.532 7.532 0 0 0-2.079-1.556 7.155 7.155 0 0 0-3.263-.782 6.49 6.49 0 0 0-4.7 1.836 6.084 6.084 0 0 0-1.9 4.553 7.66 7.66 0 0 0 .495 2.7 11.528 11.528 0 0 0 1.748 2.939 36.516 36.516 0 0 0 3.4 3.69c1.427 1.383 3.24 3.033 5.44 4.95z" fill="#EA1917"/>
</svg>
