<svg xmlns="http://www.w3.org/2000/svg" width="16" height="16" viewBox="0 0 16 16">
    <g fill="none" fill-rule="evenodd">
        <g>
            <g>
                <g>
                    <g>
                        <path d="M0 0H16V16H0z" transform="translate(-233 -903) translate(145 893) translate(78) translate(10 10)"/>
                        <g fill="#000">
                            <path d="M.5 6h11c.276 0 .5.224.5.5s-.224.5-.5.5H.5C.224 7 0 6.776 0 6.5S.224 6 .5 6z" transform="translate(-233 -903) translate(145 893) translate(78) translate(10 10) translate(2 1.5)"/>
                            <path d="M.5 6h11c.276 0 .5.224.5.5s-.224.5-.5.5H.5C.224 7 0 6.776 0 6.5S.224 6 .5 6z" transform="translate(-233 -903) translate(145 893) translate(78) translate(10 10) translate(2 1.5) rotate(90 6 6.5)"/>
                        </g>
                    </g>
                </g>
            </g>
        </g>
    </g>
</svg>
