<svg width="56" height="54" viewBox="0 0 56 54" xmlns="http://www.w3.org/2000/svg">
    <g fill="none" fill-rule="evenodd">
        <path d="M56 43c0 5.891-12.536 10.667-28 10.667S0 48.89 0 43s12.536-10.667 28-10.667S56 37.11 56 43" fill="#E4E4E4"/>
        <path d="M26.174 42.22c.705 1.04 2.26 1.04 2.964 0l11.8-17.418a15.445 15.445 0 0 0 2.655-10.17C42.908 6.974 36.498.846 28.687.365c-9.302-.572-17.03 6.668-17.03 15.682 0 3.243 1.003 6.255 2.717 8.755l11.8 17.418z" fill="#8E2770"/>
        <path d="M35.844 15.889c0 4.664-3.81 8.444-8.51 8.444-4.7 0-8.511-3.78-8.511-8.444 0-4.664 3.81-8.445 8.51-8.445 4.7 0 8.51 3.781 8.51 8.445" fill="#FFF"/>
    </g>
</svg>
