<svg data-name="img_Tool tip_24" xmlns="http://www.w3.org/2000/svg" width="24" height="24" viewBox="0 0 24 24">
    <path data-name="Stroke 3829" d="M9.5 0a9.5 9.5 0 1 1-1.853.183A9.477 9.477 0 0 1 9.5 0z" style="fill:none;stroke:#000;stroke-miterlimit:10;stroke-width:1.2px" transform="translate(2.5 2.5)"/>
    <path data-name="Fill 3831" d="M11.88 16.677a.791.791 0 0 1-.595-.217.816.816 0 0 1 .009-1.1.8.8 0 0 1 .586-.212.8.8 0 0 1 .592.22.762.762 0 0 1 .217.553.742.742 0 0 1-.209.539.8.8 0 0 1-.6.217zm-.035-2.529a.666.666 0 0 1-.493-.174.6.6 0 0 1-.162-.39 3.289 3.289 0 0 1 .19-1.242 2.664 2.664 0 0 1 .682-.832l.072-.069a5.919 5.919 0 0 0 .724-.788 1.394 1.394 0 0 0 .234-.773 1.19 1.19 0 0 0-.273-.842 1.049 1.049 0 0 0-.8-.29 1.153 1.153 0 0 0-.812.284 1 1 0 0 0-.308.77c0 .009-.008.909-.7.909S9.48 9.812 9.48 9.8a2.1 2.1 0 0 1 .707-1.638 2.716 2.716 0 0 1 1.836-.662 2.682 2.682 0 0 1 1.837.656 2.151 2.151 0 0 1 .659 1.67 2.746 2.746 0 0 1-.891 1.881l-.71.593a1.938 1.938 0 0 0-.4 1.283.609.609 0 0 1-.673.565z"/>
</svg>
