<svg width="32" height="32" viewBox="0 0 32 32" xmlns="http://www.w3.org/2000/svg">
    <g fill="none" fill-rule="evenodd">
        <path d="M0 32h32V0H0z"/>
        <path d="M16.447 23.235a.96.96 0 0 0-.893 0l-6.061 3.186A.96.96 0 0 1 8.1 25.409l1.157-6.749a.96.96 0 0 0-.276-.85l-4.9-4.779a.96.96 0 0 1 .529-1.637l6.776-.985a.96.96 0 0 0 .723-.525l3.03-6.14a.96.96 0 0 1 1.722 0l3.03 6.14c.14.283.41.48.723.525l6.776.985a.96.96 0 0 1 .532 1.637l-4.9 4.779a.96.96 0 0 0-.276.85l1.154 6.749a.96.96 0 0 1-1.393 1.012l-6.06-3.186z" fill="#FFB019" fill-rule="nonzero"/>
    </g>
</svg>
