<svg width="32" height="32" viewBox="0 0 32 32" fill="none" xmlns="http://www.w3.org/2000/svg">
<g clip-path="url(#clip0_6179_69707)">
<path d="M16.4427 3.55469C17.2889 3.55469 18.127 3.63723 18.957 3.80231C19.787 3.96739 20.5929 4.21184 21.3747 4.53566C22.1565 4.85948 22.8993 5.25645 23.6029 5.72657C24.3065 6.19668 24.9575 6.73091 25.5559 7.32924C26.1543 7.92759 26.6885 8.57855 27.1587 9.28212C27.6288 9.9857 28.0258 10.7284 28.3497 11.5101C28.6735 12.2919 28.918 13.0978 29.083 13.9277C29.2481 14.7576 29.3307 15.5957 29.3307 16.4418C29.3307 17.288 29.2481 18.1261 29.083 18.956C28.918 19.7859 28.6735 20.5918 28.3497 21.3735C28.0258 22.1553 27.6288 22.898 27.1587 23.6016C26.6885 24.3051 26.1543 24.9561 25.5559 25.5544C24.9575 26.1528 24.3065 26.687 23.6029 27.1571C22.8993 27.6272 22.1565 28.0242 21.3747 28.348C20.5929 28.6718 19.787 28.9163 18.957 29.0814C18.127 29.2465 17.2889 29.329 16.4427 29.329C15.5965 29.329 14.7583 29.2465 13.9284 29.0814C13.0984 28.9163 12.2925 28.6718 11.5107 28.348C10.7288 28.0242 9.98612 27.6272 9.2825 27.1571C8.57888 26.687 7.92788 26.1528 7.32949 25.5544C6.73111 24.9561 6.19685 24.3051 5.72671 23.6016C5.25656 22.898 4.85957 22.1553 4.53573 21.3735C4.21188 20.5918 3.96742 19.7859 3.80233 18.956C3.63723 18.1261 3.55469 17.288 3.55469 16.4418C3.55469 15.5957 3.63723 14.7576 3.80233 13.9277C3.96742 13.0978 4.21188 12.2919 4.53573 11.5101C4.85957 10.7284 5.25656 9.9857 5.72671 9.28212C6.19685 8.57855 6.73111 7.92759 7.32949 7.32924C7.92788 6.73091 8.57888 6.19668 9.2825 5.72657C9.98612 5.25645 10.7288 4.85948 11.5107 4.53566C12.2925 4.21184 13.0984 3.96739 13.9284 3.80231C14.7583 3.63723 15.5965 3.55469 16.4427 3.55469Z" fill="#AAAAAA"/>
<path d="M10.7969 16.6797H22.055" stroke="white" stroke-width="2" stroke-miterlimit="10" stroke-linecap="round" stroke-linejoin="round"/>
<path d="M16.4259 11.051V22.3084" stroke="white" stroke-width="2" stroke-miterlimit="10" stroke-linecap="round" stroke-linejoin="round"/>
</g>
<defs>
<clipPath id="clip0_6179_69707">
<rect width="32" height="32" fill="white"/>
</clipPath>
</defs>
</svg>
