<svg width="33" height="32" viewBox="0 0 33 32" xmlns="http://www.w3.org/2000/svg">
    <g fill="none" fill-rule="evenodd">
        <path d="M16.5.75a15.228 15.228 0 0 1 7.189 1.8 15.232 15.232 0 0 1 5.49 4.978 15.232 15.232 0 0 1 2.498 6.977 15.227 15.227 0 0 1-1.088 7.331 15.218 15.218 0 0 1-3.306 4.947A15.243 15.243 0 0 1 16.5 31.25a15.228 15.228 0 0 1-7.189-1.8 15.232 15.232 0 0 1-5.49-4.978 15.232 15.232 0 0 1-2.498-6.977 15.227 15.227 0 0 1 1.088-7.331 15.218 15.218 0 0 1 3.306-4.947A15.244 15.244 0 0 1 16.5.75z" stroke="#FFF" stroke-width="1.5" fill-opacity=".5" fill="#000" fill-rule="nonzero"/>
        <path d="M22.444 14.835a1.391 1.391 0 0 1 0 2.395l-8.276 4.89c-.927.549-2.099-.12-2.099-1.197v-9.781a1.391 1.391 0 0 1 2.1-1.198l8.275 4.89z" fill="#FFF"/>
    </g>
</svg>
