<svg width="32" height="32" viewBox="0 0 32 32" fill="none" xmlns="http://www.w3.org/2000/svg">
<g clip-path="url(#clip0_18312_328588)">
<circle cx="16" cy="16" r="16" fill="#E4E4E4"/>
<path d="M20.1414 15.6117L23.0474 18.5027C23.348 18.8008 23.5866 19.1555 23.7494 19.5463C23.9123 19.9371 23.9961 20.3563 23.9961 20.7797C23.9961 21.203 23.9123 21.6222 23.7494 22.013C23.5866 22.4038 23.348 22.7585 23.0474 23.0567C22.4386 23.6612 21.6154 24.0005 20.7574 24.0005C19.8994 24.0005 19.0763 23.6612 18.4674 23.0567L14.9474 19.5537C14.6468 19.2555 14.4083 18.9008 14.2454 18.51C14.0826 18.1192 13.9988 17.7 13.9988 17.2767C13.9988 16.8533 14.0826 16.4341 14.2454 16.0433C14.4083 15.6525 14.6468 15.2978 14.9474 14.9997" stroke="black" stroke-width="2" stroke-miterlimit="10" stroke-linecap="round"/>
<path d="M11.8547 16.3879L8.94866 13.4969C8.64806 13.1987 8.40947 12.844 8.24665 12.4532C8.08383 12.0624 8 11.6432 8 11.2199C8 10.7965 8.08383 10.3773 8.24665 9.9865C8.40947 9.59569 8.64806 9.24099 8.94866 8.94286C9.55748 8.3383 10.3807 7.99902 11.2387 7.99902C12.0966 7.99902 12.9198 8.3383 13.5287 8.94286L17.0487 12.4459C17.3493 12.744 17.5878 13.0987 17.7507 13.4895C17.9135 13.8803 17.9973 14.2995 17.9973 14.7229C17.9973 15.1462 17.9135 15.5654 17.7507 15.9562C17.5878 16.347 17.3493 16.7017 17.0487 16.9999" stroke="black" stroke-width="2" stroke-miterlimit="10" stroke-linecap="round"/>
</g>
<defs>
<clipPath id="clip0_18312_328588">
<rect width="32" height="32" fill="white"/>
</clipPath>
</defs>
</svg>
